<svg width="39.549561" height="39.137199" viewBox="0 0 39.5496 39.1372" fill="none" xmlns="http://www.w3.org/2000/svg" xmlns:xlink="http://www.w3.org/1999/xlink">
	<desc>
			Created with Pixso.
	</desc>
	<defs/>
	<path id="Union" d="M5.97107 18.9191L0.449585 9.35558L5.61096 0L16.2938 0.207901L21.8153 9.77138L16.6539 19.127L5.97107 18.9191ZM1.5979 9.34441L6.19507 1.01155L15.7101 1.19672L20.6671 9.78255L16.0699 18.1154L6.55493 17.9302L1.5979 9.34441ZM5.52148 39.1372L0 29.5737L5.52148 20.0102L16.5645 20.0102L22.0858 29.5737L16.5645 39.1372L5.52148 39.1372ZM17.4637 19.491L22.9852 29.0545L34.0282 29.0545L39.5496 19.491L34.0282 9.92755L22.9852 9.92755L17.4637 19.491ZM1.15466 29.5737L6.09875 21.0102L15.9871 21.0102L20.9312 29.5737L15.9871 38.1372L6.09875 38.1372L1.15466 29.5737ZM23.5625 10.9276L18.6184 19.491L23.5625 28.0545L33.4508 28.0545L38.3949 19.491L33.4508 10.9276L23.5625 10.9276Z" clip-rule="evenodd" fill="#000000" fill-opacity="1.000000" fill-rule="evenodd"/>
</svg>
