<?xml version="1.0" standalone="no"?>
<!DOCTYPE svg PUBLIC "-//W3C//DTD SVG 20010904//EN"
 "http://www.w3.org/TR/2001/REC-SVG-20010904/DTD/svg10.dtd">
<svg version="1.0" xmlns="http://www.w3.org/2000/svg"
 width="1077.000000pt" height="1077.000000pt" viewBox="0 0 1077.000000 1077.000000"
 preserveAspectRatio="xMidYMid meet">

<g transform="translate(0.000000,1077.000000) scale(0.100000,-0.100000)"
fill="#ffffff" stroke="#000000">
<path d="M0 6431 l0 -4338 45 -6 c25 -4 56 -2 71 3 14 6 30 8 35 4 5 -3 9 2 9
10 0 8 -8 17 -17 19 -11 3 -5 5 12 6 22 1 26 4 17 13 -7 7 -12 23 -12 36 0 18
4 23 16 18 9 -4 23 -1 30 5 10 8 14 8 14 0 0 -6 5 -11 11 -11 5 0 7 4 4 10 -3
5 1 10 9 10 9 0 16 -4 16 -10 0 -5 11 -10 25 -10 20 0 27 -6 32 -30 3 -16 9
-30 14 -30 5 0 9 -18 9 -40 0 -57 27 -55 33 2 3 40 4 39 6 -12 3 -77 9 -85 61
-86 25 -1 63 -4 85 -7 22 -3 73 -8 113 -12 63 -5 75 -3 93 14 14 13 19 26 14
40 -5 18 -2 21 19 21 14 0 26 -6 26 -12 0 -10 2 -10 9 0 7 11 19 11 67 -3 33
-9 73 -17 89 -16 56 1 77 -8 70 -29 -5 -16 -2 -20 18 -20 14 0 28 -7 31 -16 5
-13 9 -14 21 -4 8 6 18 9 23 6 6 -3 15 1 22 9 10 12 9 16 -4 21 -9 3 -16 10
-16 15 0 12 70 40 81 33 5 -3 6 9 3 25 -6 29 -4 32 39 50 41 18 46 23 57 70 9
38 17 51 30 51 22 0 35 -17 19 -22 -9 -3 -9 -9 0 -26 16 -30 35 -28 27 3 -4
14 -2 25 3 25 4 0 11 14 15 31 5 25 10 30 26 26 13 -3 20 0 20 9 0 11 21 14
98 16 53 1 112 2 130 1 51 -1 32 22 -21 25 -35 2 -47 7 -47 19 0 12 7 14 37
10 22 -4 42 -2 51 5 18 15 34 -7 29 -39 -3 -14 1 -23 9 -23 7 0 14 12 16 26 4
36 66 58 121 43 20 -5 37 -14 37 -19 0 -6 5 -10 10 -10 6 0 10 6 10 14 0 8 10
16 23 18 21 4 21 5 -7 18 -20 10 -31 11 -33 4 -3 -8 -13 -8 -38 0 -45 16 -48
20 -40 47 5 15 9 18 15 9 8 -13 50 -5 50 11 0 13 64 11 77 -2 6 -6 20 -8 32
-4 20 6 20 7 4 31 -9 14 -12 24 -7 23 5 -1 14 0 19 1 6 2 17 4 25 5 41 5 79
30 82 54 3 24 9 29 62 53 39 17 43 33 13 53 -20 13 -29 13 -50 4 -17 -8 -30
-8 -44 0 -18 9 -19 16 -13 53 5 25 5 44 -1 46 -13 5 -11 82 2 82 5 0 7 5 3 11
-4 8 -9 7 -15 -2 -6 -9 -9 1 -9 29 0 23 -4 42 -10 42 -15 0 -12 -77 3 -83 6
-2 9 -8 5 -12 -13 -14 -38 23 -38 55 0 17 6 38 14 46 13 12 17 11 29 -7 9 -13
17 -16 22 -10 3 6 1 11 -4 11 -6 0 -11 18 -11 40 0 22 5 40 11 40 5 0 7 5 4
10 -4 6 -14 1 -26 -12 l-19 -23 6 27 c4 18 2 28 -5 28 -6 0 -11 -7 -11 -15 0
-8 -7 -15 -15 -15 -8 0 -15 6 -15 13 0 8 -4 7 -10 -3 -9 -13 -11 -13 -20 0 -6
8 -8 27 -6 42 3 15 1 30 -4 33 -6 4 -10 -8 -10 -27 0 -18 -5 -40 -10 -48 -6
-10 -10 -11 -10 -2 0 6 -4 12 -10 12 -5 0 -10 -7 -10 -16 0 -8 -4 -13 -8 -10
-10 6 -8 73 2 83 3 3 6 0 6 -7 0 -7 3 -10 6 -7 4 4 2 13 -5 20 -12 15 -5 47
10 47 5 0 9 7 9 15 0 8 5 15 10 15 6 0 10 20 10 46 0 42 2 46 35 60 38 16 44
23 18 20 -14 -1 -17 6 -14 37 2 28 -1 37 -13 37 -9 0 -16 8 -16 20 0 15 -7 20
-26 20 -14 0 -23 4 -19 10 4 6 11 8 16 5 12 -8 -2 27 -17 43 -7 6 -28 12 -46
12 -31 0 -33 2 -33 38 -1 25 -8 45 -23 60 -24 24 -26 30 -12 52 6 9 5 17 -3
22 -6 4 -12 41 -14 90 -3 85 -10 189 -13 198 -1 3 -2 8 -1 13 2 13 -17 7 -23
-8 -9 -25 -36 -18 -36 9 0 43 -10 56 -46 56 -30 0 -34 3 -40 36 -4 21 -4 77
-1 127 5 82 4 90 -14 94 -20 6 -20 10 -23 130 -1 51 0 53 27 53 25 0 26 2 15
20 -7 11 -18 20 -25 20 -7 0 -13 9 -13 20 0 11 -3 20 -7 20 -8 0 -6 197 1 235
3 11 5 25 6 30 0 6 7 1 15 -9 19 -25 33 -12 17 14 -16 27 -15 30 8 30 11 0 20
7 20 15 0 8 5 15 10 15 6 0 10 7 10 15 0 9 -9 15 -25 15 -41 0 -70 39 -66 89
1 11 4 11 15 2 10 -9 20 -9 33 -3 15 8 24 5 43 -15 l24 -25 13 26 c8 14 22 26
31 26 10 0 22 4 28 9 14 15 149 27 140 13 -7 -12 16 -20 62 -20 20 -1 39 -8
46 -18 11 -14 16 -15 36 -4 21 11 22 10 18 -8 -5 -17 -2 -19 21 -12 64 19 77
32 44 44 -14 6 -15 9 -4 15 16 10 -40 26 -76 22 -11 -1 -24 3 -28 8 -4 7 4 11
19 11 22 0 26 4 26 30 0 24 4 30 21 30 11 0 17 5 14 10 -3 6 -26 10 -51 10
-30 0 -43 4 -38 11 3 6 17 9 30 6 13 -2 24 0 24 4 0 13 44 11 58 -3 6 -6 15
-8 19 -4 11 11 -18 26 -49 26 -24 0 -28 4 -28 30 0 26 4 30 28 30 27 0 70 20
45 20 -8 0 -13 15 -13 40 0 27 -4 40 -13 40 -30 0 -47 35 -47 98 0 58 2 62 23
62 19 0 22 5 21 35 -1 19 -10 42 -20 52 -17 17 -16 18 11 23 16 3 28 10 28 15
-1 11 -81 27 -94 19 -15 -9 -50 7 -42 19 3 7 -4 3 -16 -8 -22 -19 -23 -19 -37
0 -9 12 -14 14 -14 5 0 -11 -3 -11 -12 -2 -7 7 -20 12 -29 12 -9 0 -22 7 -29
15 -16 19 3 45 31 45 23 0 25 18 3 27 -10 4 -20 0 -26 -10 -4 -9 -15 -14 -23
-11 -10 4 -15 0 -15 -12 0 -13 -3 -15 -11 -7 -5 5 -9 32 -7 59 3 46 5 49 28
45 14 -1 27 -6 30 -11 10 -15 49 -20 89 -11 25 5 43 5 47 0 6 -11 24 -2 24 12
0 5 -7 9 -16 9 -11 0 -14 6 -9 20 4 11 1 36 -5 55 -11 32 -15 35 -51 35 -21 0
-39 -4 -39 -10 0 -5 18 -10 40 -10 22 0 40 -4 40 -10 0 -5 -13 -10 -29 -10
-43 0 -91 -11 -91 -21 0 -5 9 -9 20 -9 11 0 20 -4 20 -10 0 -5 19 -10 42 -10
23 0 39 -3 35 -6 -3 -3 -40 -3 -81 1 -56 5 -76 11 -76 21 0 8 -7 17 -15 20
-20 8 -19 21 3 27 11 3 7 5 -10 6 -27 1 -51 21 -26 21 8 1 5 7 -7 16 -17 13
-18 16 -5 24 8 5 20 10 27 10 22 0 27 42 7 57 -11 8 -18 18 -17 23 1 4 -5 14
-13 21 -14 11 -18 10 -29 -5 -8 -10 -21 -16 -32 -13 -16 4 -15 6 5 12 12 4 22
12 22 19 0 6 10 16 22 21 26 11 35 42 19 58 -7 7 -37 10 -72 9 -54 -3 -61 -1
-66 17 -3 12 -9 21 -14 21 -4 0 -10 21 -12 48 l-3 47 -2 -47 c-2 -48 -2 -48
-37 -48 -19 0 -35 5 -35 10 0 6 5 10 10 10 16 0 12 27 -5 34 -22 8 -20 48 3
44 12 -2 17 4 17 22 0 18 -5 24 -17 22 -22 -4 -22 1 -3 38 9 17 22 30 30 30 8
0 15 7 15 15 0 8 5 15 11 15 5 0 7 5 3 11 -5 8 -9 7 -14 -1 -14 -22 -39 -3
-46 35 -3 20 -12 41 -18 48 -32 32 -60 113 -58 166 2 40 -2 56 -14 66 -12 8
-15 20 -10 38 8 33 23 35 28 5 2 -13 10 -23 18 -23 8 0 18 -7 22 -15 4 -8 7
22 7 67 1 45 4 83 9 85 11 5 42 64 42 82 0 23 17 20 25 -4 13 -42 55 -10 55
43 0 20 -6 37 -12 40 -19 6 10 38 31 35 9 -2 20 7 26 20 7 16 18 22 40 22 30
0 55 15 55 33 0 5 -9 7 -20 4 -13 -3 -20 0 -20 9 0 8 9 14 19 14 11 0 23 5 26
10 10 16 53 11 72 -8 29 -30 51 -34 63 -11 6 10 9 23 6 28 -3 5 3 11 14 14 20
5 28 27 10 27 -5 0 -10 4 -10 9 0 12 39 2 65 -16 11 -7 26 -13 35 -13 20 1 58
52 42 58 -22 7 23 82 49 82 7 0 4 6 -7 14 -17 14 -18 16 -3 28 9 7 23 28 30
46 15 34 23 39 34 21 8 -12 55 28 55 47 0 7 -7 20 -16 29 -9 9 -14 19 -10 22
13 13 77 31 96 26 13 -4 19 1 22 19 4 28 76 58 89 36 5 -7 13 0 22 23 9 20 16
27 16 17 1 -10 8 -18 16 -18 12 0 13 3 3 19 -9 15 -9 23 1 35 7 8 10 20 6 26
-3 5 -1 10 4 10 6 0 11 -9 11 -19 0 -31 11 -50 25 -44 11 4 12 9 2 23 -6 11
-8 23 -4 27 5 4 12 1 16 -6 11 -18 32 -5 29 17 -2 13 4 17 25 15 17 -1 27 3
27 12 0 12 20 25 39 25 4 0 15 -18 25 -40 10 -22 24 -40 32 -40 8 0 20 -11 26
-25 6 -14 17 -25 25 -25 7 0 13 -2 13 -5 0 -10 -49 -55 -60 -55 -5 0 -10 -4
-10 -10 0 -5 8 -10 18 -10 15 -1 14 -2 -3 -12 -30 -16 -31 -18 -15 -29 13 -8
13 -10 0 -20 -12 -8 -12 -12 -2 -16 10 -4 9 -8 -5 -18 -17 -12 -16 -15 10 -39
15 -14 27 -30 27 -35 0 -14 -32 -29 -47 -24 -15 6 -17 33 -3 33 6 0 10 4 10 9
0 5 -11 4 -24 -2 -19 -9 -22 -16 -15 -29 12 -23 11 -58 -2 -58 -5 0 -7 -5 -4
-10 4 -6 46 -10 103 -10 53 1 102 1 109 1 17 -1 64 -47 56 -54 -3 -4 -1 -7 5
-7 6 0 12 8 15 18 3 13 6 11 15 -10 7 -18 19 -28 32 -28 13 0 20 -7 20 -20 0
-11 5 -20 10 -20 6 0 10 -4 10 -10 0 -28 36 -90 52 -90 15 0 16 -3 7 -18 -10
-15 -7 -23 13 -43 13 -13 30 -24 38 -24 9 0 19 -15 24 -36 7 -30 15 -37 51
-48 23 -7 53 -9 67 -6 21 5 26 2 31 -17 4 -15 1 -25 -8 -31 -13 -7 -13 -10 -1
-23 8 -8 20 -14 26 -14 8 0 11 -11 8 -30 -3 -16 -1 -30 3 -30 10 0 17 74 7 78
-17 7 -7 32 12 32 17 0 20 -7 22 -47 2 -66 2 -71 11 -79 4 -4 7 6 8 22 0 16 4
38 9 49 7 17 9 15 9 -11 1 -28 4 -30 36 -30 30 1 35 4 36 26 1 23 2 22 11 -7
7 -22 17 -33 29 -33 21 0 24 11 8 27 -7 7 -7 13 0 17 5 4 15 -3 21 -15 7 -11
14 -18 17 -15 3 3 12 -1 20 -9 8 -8 25 -15 39 -15 18 0 24 6 25 23 1 17 2 18
6 4 7 -26 -23 -67 -57 -79 -23 -8 -27 -12 -17 -23 6 -7 18 -10 24 -8 7 3 13
-2 13 -11 0 -9 7 -16 15 -16 8 0 15 4 15 9 0 5 -7 14 -15 21 -21 17 -19 25 11
45 29 19 43 13 25 -9 -7 -8 -10 -20 -6 -26 9 -15 35 -12 35 5 0 22 17 18 23
-5 4 -16 0 -20 -18 -20 -13 0 -26 -7 -29 -16 -9 -23 -8 -24 14 -24 14 0 18 -5
13 -16 -5 -13 -14 -15 -45 -10 -26 4 -37 3 -33 -4 4 -6 -5 -10 -22 -11 l-28
-1 25 -7 25 -7 -22 -8 c-13 -4 -27 -4 -33 -1 -5 3 -10 1 -10 -4 0 -6 9 -11 20
-11 17 0 19 -3 8 -19 -7 -11 -16 -17 -20 -15 -4 3 -8 -2 -8 -10 0 -8 -15 -25
-32 -37 -48 -33 -78 -62 -78 -75 0 -15 -28 -26 -43 -17 -7 4 -5 -2 3 -12 14
-17 13 -18 -2 -12 -10 3 -17 3 -16 -1 1 -4 -5 -20 -12 -37 l-13 -30 -7 25 c-6
20 -7 15 -7 -20 -1 -24 -6 -46 -12 -48 -6 -2 -11 -10 -11 -18 0 -8 -7 -17 -15
-20 -8 -4 -15 -17 -15 -30 0 -14 -6 -27 -12 -29 -8 -3 -14 -27 -16 -54 -2 -27
-7 -64 -13 -83 -8 -29 -7 -36 15 -55 26 -22 64 -21 71 1 2 6 11 38 21 71 10
33 21 62 24 65 4 3 9 13 13 23 4 10 15 17 24 15 12 -2 19 4 21 20 2 12 8 22
13 22 6 0 8 3 5 8 -2 4 13 25 35 47 21 21 39 44 39 52 0 7 5 13 10 13 6 0 10
5 10 11 0 15 101 109 118 109 7 0 10 5 7 11 -8 12 26 40 39 31 5 -3 7 2 3 11
-4 11 4 22 28 37 18 11 36 26 38 33 3 9 9 9 26 -1 12 -7 21 -8 21 -2 0 15 17
12 36 -7 16 -16 15 -18 -12 -30 -16 -7 -25 -12 -21 -13 13 0 -26 -60 -40 -60
-7 0 -13 -6 -13 -13 0 -12 -10 -27 -51 -75 -6 -7 -18 -34 -26 -60 -9 -26 -22
-56 -30 -67 -7 -11 -13 -29 -13 -40 0 -11 -7 -40 -16 -65 -9 -25 -20 -83 -24
-130 -12 -106 -20 -161 -27 -180 -4 -8 -7 -42 -7 -75 -1 -72 -19 -89 -26 -25
-4 33 -7 40 -12 27 -5 -10 -8 -27 -8 -37 0 -12 -6 -17 -17 -15 -10 1 -24 -2
-30 -8 -9 -6 -13 -6 -13 2 0 6 -6 11 -13 11 -7 0 -23 9 -35 20 -16 15 -34 20
-69 18 l-48 -1 45 -6 c33 -4 40 -8 27 -13 -34 -14 -88 -8 -115 12 l-25 21 -26
-24 c-14 -14 -37 -27 -51 -31 -42 -10 -47 -19 -54 -88 -7 -65 -7 -68 14 -68
31 0 50 -24 50 -64 0 -34 0 -35 -37 -29 -26 4 -34 3 -29 -5 4 -7 16 -12 27
-12 10 0 19 -7 19 -15 0 -17 -45 -21 -55 -5 -7 12 -25 13 -25 3 0 -12 51 -33
76 -33 13 0 26 -4 29 -10 7 -11 2 -11 -60 -12 l-40 -1 38 -4 c50 -6 47 -21 -5
-26 -36 -3 -33 -4 17 -6 33 -1 70 -1 83 -1 13 0 22 -6 22 -15 0 -17 16 -20 25
-5 3 6 1 10 -5 10 -6 0 -8 4 -5 10 3 6 19 10 35 10 16 0 32 -4 35 -10 3 -5 17
-10 31 -10 13 0 24 -4 24 -9 0 -10 58 -8 82 3 10 4 20 16 23 26 3 10 21 28 40
41 19 13 35 31 36 39 0 10 3 9 10 -5 6 -14 7 -2 3 35 l-6 55 21 -27 c11 -14
21 -36 21 -47 0 -28 20 -27 21 2 0 30 39 -91 39 -124 0 -15 7 -32 15 -39 8 -7
15 -20 15 -29 0 -9 5 -22 11 -28 6 -6 12 -17 13 -24 2 -8 8 -27 15 -42 6 -16
10 -48 9 -71 -1 -50 6 -66 32 -66 10 0 21 -8 23 -17 2 -10 4 -6 2 9 -1 26 4
27 33 5 17 -14 150 -18 158 -6 12 20 -14 33 -41 21 -23 -11 -27 -9 -34 11 -11
29 -4 35 14 11 13 -16 16 -17 25 -4 12 19 13 43 1 36 -5 -4 -11 0 -14 6 -3 10
-9 11 -26 1 -29 -18 -32 -16 -25 13 5 20 2 26 -14 31 -11 3 -28 19 -36 37 -8
18 -24 40 -36 51 -11 10 -20 25 -20 34 0 9 -9 31 -20 48 -26 43 -37 153 -15
153 8 0 15 5 15 10 0 6 -11 10 -25 10 -19 0 -25 5 -25 21 0 11 -4 17 -10 14
-13 -8 -12 93 1 120 8 18 9 17 5 -5 -3 -14 -1 -41 4 -60 7 -30 8 -23 9 39 1
61 -1 72 -14 67 -16 -6 -18 0 -15 59 1 25 9 47 21 58 21 20 26 67 7 67 -10 0
-10 2 -1 8 6 4 15 41 19 82 4 41 13 80 20 87 7 7 16 35 19 61 4 26 13 61 21
79 8 17 14 35 14 40 0 16 40 88 55 99 8 6 22 26 31 45 27 59 45 89 52 89 19 0
42 -44 42 -79 0 -33 4 -39 24 -43 14 -3 31 -1 38 3 10 7 9 9 -4 9 -13 0 -18 8
-18 28 0 16 -7 43 -15 59 -11 23 -13 37 -5 54 10 23 10 23 7 -3 -3 -16 -3 -28
-1 -28 8 0 41 38 47 54 6 14 10 16 21 7 7 -6 21 -9 30 -5 17 7 22 34 6 34 -5
0 -10 7 -10 15 0 8 17 19 40 26 22 7 45 18 51 26 6 7 18 13 26 13 8 0 11 5 8
10 -9 14 -21 12 -40 -6 -11 -11 -20 -13 -26 -7 -7 7 -5 15 8 24 10 8 19 25 21
39 l2 25 -14 -25 -15 -25 -1 28 c0 15 5 27 10 27 6 0 10 7 10 15 0 22 37 -3
44 -30 5 -17 8 -18 16 -5 14 21 12 30 -6 30 -11 0 -14 6 -9 20 5 15 2 20 -12
20 -15 0 -14 4 7 20 20 16 34 19 69 14 37 -5 43 -3 38 10 -8 20 3 20 29 1 10
-8 27 -15 36 -15 27 0 31 19 6 30 -18 8 -15 8 16 3 28 -4 37 -3 32 6 -10 15
26 15 42 -1 7 -7 12 -21 12 -31 0 -15 -5 -18 -25 -15 -33 7 -33 -10 0 -18 14
-3 25 -13 25 -21 0 -8 -4 -12 -9 -9 -5 4 -11 1 -13 -4 -2 -6 -20 -12 -40 -13
-20 -1 -40 -6 -44 -10 -4 -4 -5 -7 -3 -7 3 0 31 -5 63 -11 52 -9 59 -8 71 8
19 25 25 14 18 -35 l-6 -42 -54 0 c-50 0 -53 -1 -43 -19 5 -11 10 -41 10 -68
0 -37 -5 -51 -19 -60 -13 -8 -18 -19 -14 -33 3 -11 0 -20 -6 -20 -6 0 -11 -14
-11 -32 0 -30 -1 -31 -19 -14 -11 10 -17 24 -14 32 4 11 -5 14 -36 14 -36 0
-43 -4 -53 -27 l-12 -28 -4 25 c-2 13 1 26 7 28 14 5 15 49 1 57 -5 3 -10 -1
-10 -9 0 -9 -7 -16 -15 -16 -17 0 -20 -16 -5 -25 16 -10 12 -65 -4 -65 -17 0
-26 -22 -26 -66 0 -49 26 -45 35 6 4 25 12 40 21 40 9 0 12 5 8 11 -4 7 2 9
17 7 15 -2 23 -9 21 -18 -2 -8 -3 -22 -2 -30 1 -8 3 -78 4 -155 2 -159 15
-303 26 -286 3 7 14 9 23 5 12 -4 17 -1 17 10 0 9 -8 16 -20 16 -14 0 -20 7
-20 21 0 17 3 19 13 10 25 -20 37 9 37 91 0 43 4 78 9 78 6 0 8 -46 6 -110 -2
-60 1 -112 6 -116 5 -3 9 11 9 30 0 25 5 36 15 36 11 0 14 -14 12 -61 -1 -59
-2 -60 -18 -40 -14 18 -18 18 -23 5 -4 -11 -13 -13 -28 -9 l-23 7 23 -23 c18
-19 24 -21 31 -10 6 9 10 10 12 2 3 -7 21 -13 42 -14 20 -1 37 -4 37 -5 0 -2
-14 -17 -30 -32 -18 -17 -30 -38 -30 -54 0 -14 -4 -26 -10 -26 -5 0 -10 7 -10
15 0 8 -4 15 -9 15 -4 0 -6 -11 -3 -25 2 -15 0 -25 -7 -25 -6 0 -11 9 -11 20
0 11 -4 20 -10 20 -5 0 -10 -9 -10 -20 0 -27 -18 -25 -23 3 l-4 22 -2 -22 c0
-13 -6 -23 -12 -23 -7 0 -8 -7 -4 -17 4 -10 9 -24 12 -30 4 -9 -7 -13 -36 -13
l-41 0 0 -41 c0 -28 -4 -39 -12 -36 -35 12 -68 -46 -33 -59 11 -5 12 -10 2
-24 -6 -11 -9 -22 -6 -25 11 -10 38 6 44 26 5 16 16 19 66 19 33 0 69 -5 80
-10 13 -7 19 -7 19 0 0 5 17 9 38 9 l37 -2 -35 -6 -35 -7 40 -8 c48 -10 33
-21 -42 -31 -52 -7 -84 -25 -44 -25 12 0 21 -7 21 -15 0 -18 20 -20 20 -2 0 7
5 5 10 -5 12 -20 3 -48 -14 -42 -8 3 -19 -8 -26 -26 -10 -23 -18 -30 -32 -27
-16 5 -18 -2 -18 -59 0 -36 -4 -64 -10 -64 -5 0 -10 9 -10 20 0 11 -4 20 -10
20 -5 0 -10 -9 -10 -20 0 -27 -28 -25 -33 3 l-4 22 -2 -23 c-1 -22 -2 -22 -18
-7 -12 12 -26 15 -51 11 -20 -3 -49 1 -67 8 -30 13 -36 12 -68 -10 -20 -13
-47 -24 -61 -24 -29 0 -33 -11 -12 -29 11 -10 17 -8 25 6 9 16 10 16 11 -6 0
-13 -8 -30 -17 -37 -17 -13 -17 -13 0 -14 14 0 17 -10 17 -70 l0 -70 -40 0
c-22 0 -40 -4 -40 -10 0 -5 16 -10 35 -10 34 0 35 -1 35 -40 0 -29 -4 -40 -15
-40 -11 0 -15 -11 -15 -41 0 -36 2 -40 20 -34 11 4 20 2 20 -4 0 -7 -30 -11
-80 -11 -64 0 -80 3 -80 15 0 11 -11 15 -40 15 -41 0 -57 -19 -17 -21 21 -1
21 -1 -3 -8 -15 -4 -28 -3 -32 3 -5 7 -8 7 -8 -2 0 -9 -13 -12 -40 -10 -25 1
-46 -4 -58 -15 -10 -9 -24 -17 -30 -17 -7 0 -12 -7 -12 -15 0 -8 8 -15 18 -15
14 0 15 -2 2 -10 -10 -6 -16 -6 -18 0 -2 6 -13 10 -25 10 -11 0 -29 7 -39 17
-16 14 -18 14 -18 0 0 -8 11 -24 25 -35 24 -19 33 -42 17 -42 -5 0 -18 9 -30
20 l-21 20 -21 -28 c-22 -27 -22 -27 -2 -30 14 -2 18 -9 15 -21 -3 -12 6 -26
24 -41 25 -20 25 -22 6 -17 -31 7 -47 -16 -40 -58 5 -28 3 -35 -11 -35 -13 0
-12 -4 7 -19 18 -14 20 -20 10 -24 -11 -4 -11 -6 2 -11 14 -6 15 -13 7 -39 -6
-18 -15 -40 -19 -49 -13 -26 -11 -32 16 -62 31 -34 36 -105 8 -102 -25 2 -29
-57 -7 -106 13 -30 24 -39 51 -44 35 -7 35 -7 33 -58 -4 -77 -1 -116 8 -116 4
0 6 31 5 70 -1 38 3 72 8 75 5 4 9 -18 9 -50 0 -35 4 -54 10 -50 6 4 10 -6 10
-23 0 -16 3 -45 8 -63 5 -25 9 -1 13 86 5 117 6 115 6 -49 0 -161 1 -171 22
-187 11 -9 21 -27 21 -38 0 -12 6 -21 13 -21 6 0 19 -15 27 -33 26 -56 91 -39
98 25 1 15 -2 29 -8 33 -5 3 -10 39 -9 78 0 40 3 66 6 60 2 -7 12 -13 22 -13
18 0 41 -18 41 -32 0 -4 -13 -8 -30 -8 -24 0 -30 -4 -30 -22 0 -18 2 -20 10
-8 13 21 18 11 21 -40 2 -25 7 -52 12 -60 9 -16 -27 -90 -44 -90 -5 0 -9 -8
-9 -18 0 -11 -9 -29 -20 -42 -11 -13 -20 -30 -20 -40 0 -13 -51 -94 -70 -110
-4 -3 -21 -30 -38 -61 -17 -31 -50 -76 -72 -101 -22 -26 -40 -49 -40 -53 0
-14 -79 -101 -104 -115 -16 -8 -25 -19 -21 -27 2 -8 1 -12 -4 -9 -5 3 -11 -3
-14 -14 -3 -12 -14 -20 -26 -20 -16 0 -21 -6 -21 -27 0 -26 -19 -71 -20 -48 0
6 -10 -1 -21 -15 -17 -20 -19 -21 -14 -5 17 44 18 78 4 73 -9 -3 -13 -16 -11
-35 2 -26 -1 -31 -30 -39 -34 -10 -52 -44 -24 -44 9 0 16 5 16 11 0 5 5 7 11
3 8 -5 8 -9 -1 -14 -6 -4 -11 -10 -11 -14 3 -19 -1 -24 -19 -29 -11 -3 -20
-13 -20 -22 0 -20 -45 -77 -54 -68 -3 3 -1 15 5 25 9 16 8 19 -3 16 -7 -3 -13
-16 -14 -29 0 -13 -4 -32 -8 -41 -5 -10 -5 -25 -2 -34 5 -13 1 -15 -24 -12
-16 3 -30 1 -30 -4 0 -4 12 -8 27 -8 38 0 16 -18 -27 -22 -28 -2 -35 -7 -33
-22 1 -11 -7 -31 -18 -44 -10 -14 -19 -20 -19 -13 0 6 -4 11 -10 11 -5 0 -10
-7 -10 -15 0 -8 5 -15 10 -15 21 0 9 -20 -12 -21 -18 -1 -19 -2 -5 -6 22 -6
17 -29 -5 -25 -10 1 -20 -9 -26 -28 -6 -16 -17 -30 -24 -30 -7 0 -19 -13 -26
-29 -14 -31 -70 -60 -120 -62 l-27 -1 25 -8 c21 -7 22 -8 5 -9 -37 -2 -115
-35 -120 -51 -3 -9 -31 -24 -63 -35 -31 -10 -64 -26 -72 -36 -24 -28 -168
-100 -176 -87 -4 6 0 15 9 20 9 5 14 15 11 23 -7 18 -50 20 -57 3 -4 -10 -6
-10 -6 0 -1 6 -12 12 -26 12 -16 0 -25 6 -25 15 0 8 7 15 15 15 8 0 15 -4 15
-10 0 -20 27 -9 38 15 10 22 9 25 -8 25 -11 0 -20 3 -20 8 0 4 -14 8 -31 9
-35 3 -51 13 -32 20 20 7 15 23 -7 23 -27 0 -26 28 2 52 l22 18 -25 -4 c-13
-3 -32 -5 -43 -5 -14 -1 -17 -6 -12 -26 5 -21 3 -25 -14 -25 -35 0 -60 -19
-60 -45 0 -20 -5 -25 -24 -25 -18 0 -26 -6 -28 -23 -3 -14 -7 -6 -12 26 -8 48
-26 65 -26 25 0 -22 -20 -63 -20 -42 0 5 -7 19 -16 30 -8 10 -13 14 -10 8 3
-6 0 -28 -5 -50 -10 -34 -13 -36 -24 -21 -14 19 -25 13 -25 -15 0 -10 -4 -18
-10 -18 -5 0 -10 -7 -10 -15 0 -9 -9 -15 -21 -15 -17 0 -20 -5 -17 -25 4 -20
0 -26 -25 -35 -38 -13 -97 -13 -97 0 0 6 -15 10 -34 10 -19 0 -38 5 -41 10 -9
15 -31 12 -80 -11 -52 -25 -75 -20 -75 15 0 19 -4 24 -16 19 -11 -4 -12 -9 -5
-16 19 -19 12 -34 -16 -35 -50 -2 -63 -5 -63 -18 0 -25 -20 -25 -30 0 -11 29
-47 32 -56 3 -3 -10 -12 -16 -20 -13 -7 3 -20 -4 -27 -15 -13 -17 -16 -18 -27
-4 -16 19 -33 9 -25 -16 6 -19 2 -20 -90 -17 -75 2 -98 -1 -105 -12 -9 -13
-10 -13 -10 0 0 10 -5 7 -16 -8 -8 -12 -22 -22 -30 -22 -8 0 -14 -4 -14 -10 0
-5 -6 -10 -14 -10 -7 0 -16 -9 -19 -20 -4 -16 -11 -18 -41 -13 -39 6 -81 -14
-94 -45 -6 -14 -15 -16 -52 -11 l-45 6 43 1 c48 2 56 17 13 25 -16 3 -36 14
-45 24 -56 61 -81 82 -84 69 -2 -10 -15 -13 -45 -10 -71 8 -157 26 -163 35 -3
5 -17 9 -31 9 -31 0 -83 30 -83 48 0 29 -42 66 -94 83 -70 24 -162 32 -188 16
-15 -10 -22 -9 -31 3 -8 9 -24 14 -45 12 -28 -3 -31 -6 -21 -18 9 -11 8 -14
-5 -14 -15 0 -16 -82 -16 -965 l0 -965 5385 0 5385 0 0 1420 0 1420 -62 1
c-35 0 -72 4 -83 9 -18 7 -19 8 -2 15 30 13 19 33 -23 40 -33 6 -40 11 -40 30
0 13 4 26 9 30 12 7 11 64 -1 71 -14 9 -9 26 6 21 20 -8 96 30 96 48 0 11 13
15 50 15 43 0 50 3 50 19 0 14 -8 21 -27 24 l-28 4 28 2 27 1 0 229 0 230 -27
3 c-16 2 -27 6 -25 11 1 4 2 22 2 41 0 30 4 35 28 39 15 2 1 5 -30 6 -52 1
-58 -1 -58 -19 0 -26 -30 -26 -37 0 -4 13 -14 20 -30 20 -21 0 -23 3 -14 14 7
8 21 12 31 9 17 -5 20 0 21 28 1 32 2 32 9 9 9 -28 10 -27 15 14 5 38 8 40 65
37 l50 -2 0 3466 0 3465 -5385 0 -5385 0 0 -4339z m6352 2876 c10 -12 27 -31
38 -42 12 -12 20 -34 20 -53 0 -18 5 -32 11 -32 5 0 18 -19 29 -42 21 -49 45
-267 31 -281 -10 -10 -95 -33 -172 -47 -26 -5 -64 -17 -85 -28 -22 -10 -52
-22 -67 -26 -16 -4 -46 -18 -68 -33 -70 -46 -46 -104 51 -119 32 -5 44 -13 53
-33 14 -33 67 -81 89 -81 9 0 23 -7 32 -15 8 -8 19 -15 24 -15 6 0 12 -4 14
-9 3 -10 172 4 191 16 24 15 80 31 92 27 15 -6 25 -47 31 -129 9 -135 26 -252
40 -278 8 -16 14 -35 14 -42 0 -8 13 -39 29 -70 39 -75 47 -156 31 -320 -15
-160 -24 -184 -81 -212 -49 -24 -195 -57 -216 -49 -8 3 -11 1 -8 -4 3 -6 -3
-10 -14 -10 -12 0 -21 4 -21 9 0 4 -24 11 -52 14 -59 7 -78 25 -73 65 1 15 -1
32 -6 38 -11 13 -2 44 12 44 6 0 18 8 29 18 14 13 18 30 17 77 l-2 60 -42 10
c-49 12 -66 25 -33 25 45 0 139 24 144 36 8 21 -16 30 -116 42 -95 12 -148 27
-148 44 0 4 -6 8 -14 8 -22 0 -27 28 -7 42 21 16 42 73 35 93 -7 17 -4 17
-146 19 -101 1 -145 13 -124 33 4 4 11 1 16 -7 5 -8 12 -11 15 -8 4 4 -2 17
-14 29 -24 26 -18 43 12 33 19 -6 20 -5 9 8 -10 12 -8 18 7 32 16 15 17 23 9
53 -5 20 -7 45 -4 56 3 11 -1 44 -9 73 -7 29 -15 95 -16 146 -1 73 -7 103 -25
140 -12 25 -20 49 -17 52 3 3 -6 10 -20 15 -14 6 -31 19 -37 31 -7 13 -21 20
-43 21 -18 1 -24 3 -14 6 9 2 17 14 17 25 0 15 -5 19 -20 15 -11 -3 -20 -1
-20 4 0 5 16 9 36 9 38 0 39 19 1 21 -20 1 -20 2 3 9 14 4 18 9 10 9 -13 1
-13 3 -1 10 10 7 12 23 9 62 -3 33 0 65 8 85 7 17 11 34 8 37 -13 12 8 65 30
77 13 7 28 22 34 34 5 12 22 28 38 36 16 8 35 23 42 33 7 9 17 15 22 12 5 -3
20 9 35 27 17 21 29 28 32 21 3 -10 8 -10 19 1 8 8 14 19 14 24 0 13 41 39 71
45 13 3 56 4 94 1 58 -3 73 -8 87 -27z m-3532 -1421 c0 -3 -4 -8 -10 -11 -5
-3 -10 -1 -10 4 0 6 5 11 10 11 6 0 10 -2 10 -4z m-200 -20 c0 -3 -4 -8 -10
-11 -5 -3 -10 -1 -10 4 0 6 5 11 10 11 6 0 10 -2 10 -4z m158 -13 c-5 -26 -38
-29 -38 -4 0 15 6 21 21 21 14 0 19 -5 17 -17z m-698 -524 c0 -5 -9 -9 -20 -9
-22 0 -23 1 -14 24 5 13 9 14 20 5 8 -6 14 -15 14 -20z m4880 -32 c0 23 30 7
36 -20 4 -22 8 -26 15 -16 7 12 9 11 10 -1 1 -8 0 -19 -1 -25 -1 -5 -7 -41
-13 -78 -7 -37 -16 -69 -22 -69 -17 -2 -63 103 -70 159 -8 64 0 81 26 57 10
-9 19 -13 19 -7z m-5360 -217 c0 -5 -4 -10 -10 -10 -5 0 -10 5 -10 10 0 6 5
10 10 10 6 0 10 -4 10 -10z m27 -52 c-2 -13 -4 -3 -4 22 0 25 2 35 4 23 2 -13
2 -33 0 -45z m2598 22 c-3 -5 -11 -10 -16 -10 -6 0 -7 5 -4 10 3 6 11 10 16
10 6 0 7 -4 4 -10z m-40 -40 c3 -6 -1 -7 -9 -4 -18 7 -21 14 -7 14 6 0 13 -4
16 -10z m-46 -14 c-2 -2 -22 -6 -44 -9 -27 -4 -35 -3 -25 3 14 9 79 15 69 6z
m-699 -52 c0 -8 -4 -12 -10 -9 -5 3 -10 10 -10 16 0 5 5 9 10 9 6 0 10 -7 10
-16z m590 -4 c0 -5 -4 -10 -10 -10 -5 0 -10 5 -10 10 0 6 5 10 10 10 6 0 10
-4 10 -10z m-2547 -30 c7 -27 -2 -60 -17 -60 -7 0 -11 16 -11 40 0 42 19 56
28 20z m2427 0 c0 -4 -7 -10 -15 -14 -8 -3 -15 -12 -15 -21 0 -10 -9 -15 -27
-14 -16 1 -36 -2 -45 -6 -11 -4 -18 -3 -18 4 0 6 14 14 31 18 18 3 34 13 36
22 4 16 53 26 53 11z m-2390 -22 c0 -16 -3 -19 -11 -11 -6 6 -8 16 -5 22 11
17 16 13 16 -11z m1970 12 c0 -5 -7 -10 -15 -10 -8 0 -15 5 -15 10 0 6 7 10
15 10 8 0 15 -4 15 -10z m442 -52 c-15 -15 -26 -4 -18 18 5 13 9 15 18 6 9 -9
9 -15 0 -24z m458 22 c0 -5 -7 -10 -15 -10 -8 0 -15 5 -15 10 0 6 7 10 15 10
8 0 15 -4 15 -10z m2520 3 c0 -5 -7 -16 -14 -26 -11 -14 -15 -15 -19 -5 -3 7
-6 3 -6 -9 -1 -13 4 -23 9 -23 6 0 10 -4 10 -10 0 -5 -9 -10 -20 -10 -11 0
-20 5 -20 10 0 6 -7 10 -15 10 -8 0 -15 5 -15 10 0 6 6 10 13 10 8 0 20 11 27
25 12 22 50 36 50 18z m-3245 -13 c3 -5 -1 -10 -10 -10 -9 0 -13 5 -10 10 3 6
8 10 10 10 2 0 7 -4 10 -10z m192 -49 c-16 -8 -32 -23 -34 -32 -3 -10 -11 -15
-19 -12 -8 3 -14 -1 -14 -11 0 -9 -4 -16 -10 -16 -14 0 -12 27 3 33 10 4 10 7
0 18 -21 21 -16 42 7 35 11 -3 29 -9 39 -12 14 -4 21 0 26 15 5 16 9 18 19 8
11 -9 8 -15 -17 -26z m748 29 c-3 -5 -12 -7 -20 -3 -21 7 -19 13 6 13 11 0 18
-4 14 -10z m-465 -10 c0 -5 -5 -10 -11 -10 -5 0 -7 5 -4 10 3 6 8 10 11 10 2
0 4 -4 4 -10z m-40 -30 c0 -5 -4 -10 -9 -10 -6 0 -13 5 -16 10 -3 6 1 10 9 10
9 0 16 -4 16 -10z m-83 -76 c-3 -3 -12 -4 -19 -1 -8 3 -5 6 6 6 11 1 17 -2 13
-5z m179 -29 c2 -25 -10 -33 -20 -16 -7 10 3 41 13 41 3 0 7 -11 7 -25z m-276
-14 c0 -12 -20 -25 -27 -18 -7 7 6 27 18 27 5 0 9 -4 9 -9z m-235 -10 c3 -5 2
-12 -3 -15 -5 -3 -9 1 -9 9 0 17 3 19 12 6z m485 -47 c0 -8 -4 -12 -10 -9 -5
3 -10 13 -10 21 0 8 5 12 10 9 6 -3 10 -13 10 -21z m-245 6 c3 -5 -3 -10 -14
-10 -12 0 -21 5 -21 10 0 6 6 10 14 10 8 0 18 -4 21 -10z m202 -32 c-3 -8 -6
-5 -6 6 -1 11 2 17 5 13 3 -3 4 -12 1 -19z m443 -29 c0 -21 -4 -39 -10 -39 -5
0 -10 21 -10 46 0 27 4 43 10 39 6 -3 10 -24 10 -46z m47 -21 c-2 -13 -4 -3
-4 22 0 25 2 35 4 23 2 -13 2 -33 0 -45z m30 10 c-3 -8 -6 -5 -6 6 -1 11 2 17
5 13 3 -3 4 -12 1 -19z m106 5 c8 -7 -11 -33 -24 -33 -5 0 -9 9 -9 20 0 19 20
27 33 13z m1855 -27 c-2 -10 -7 -13 -17 -7 -8 6 -11 16 -7 27 8 21 30 4 24
-20z m-2528 20 c0 -3 -4 -8 -10 -11 -5 -3 -10 -1 -10 4 0 6 5 11 10 11 6 0 10
-2 10 -4z m610 -32 c0 -8 7 -14 15 -14 8 0 15 -4 15 -10 0 -14 -11 -12 -42 8
-21 14 -25 21 -16 30 13 13 28 7 28 -14z m-134 -39 c-7 -18 -26 -20 -26 -2 0
18 24 41 28 27 2 -6 1 -17 -2 -25z m104 -10 c0 -8 -4 -15 -10 -15 -5 0 -10 7
-10 15 0 8 5 15 10 15 6 0 10 -7 10 -15z m60 -15 c0 -5 -5 -10 -11 -10 -5 0
-7 5 -4 10 3 6 8 10 11 10 2 0 4 -4 4 -10z m-170 -14 c0 -11 -19 -15 -25 -6
-3 5 1 10 9 10 9 0 16 -2 16 -4z m70 -36 c0 -29 -4 -40 -15 -40 -11 0 -15 11
-15 40 0 29 4 40 15 40 11 0 15 -11 15 -40z m40 0 c0 -38 2 -40 30 -40 29 0
30 -1 30 -50 l0 -50 -45 0 c-51 0 -51 -1 -39 119 8 68 24 83 24 21z m-252 -26
c-3 -14 -5 -12 -10 9 -3 19 -2 25 4 19 6 -6 8 -18 6 -28z m412 22 c0 -8 -4
-18 -10 -21 -5 -3 -10 3 -10 14 0 12 5 21 10 21 6 0 10 -6 10 -14z m-272 -28
c7 -7 12 -38 12 -70 0 -32 4 -58 9 -58 15 0 20 -51 5 -57 -21 -8 -17 -23 6
-23 11 0 20 -4 20 -10 0 -17 -29 -11 -56 13 -14 12 -35 25 -47 29 -20 6 -20 6
4 7 l26 1 -4 90 c-4 88 0 103 25 78z m-141 -135 c-2 -21 -4 -4 -4 37 0 41 2
58 4 38 2 -21 2 -55 0 -75z m191 47 c13 0 13 -3 4 -12 -17 -17 -32 7 -30 47
l1 30 4 -32 c3 -22 10 -33 21 -33z m282 -11 c3 -4 15 -9 28 -13 29 -10 28 -24
-3 -32 -14 -3 -25 -10 -25 -15 0 -5 -18 -9 -40 -9 l-40 0 0 40 c0 29 4 40 15
40 8 0 15 5 15 10 0 10 38 -7 50 -21z m295 -24 c-32 -14 -41 -13 -30 4 3 6 18
11 33 10 l27 -1 -30 -13z m-540 -14 c-8 -13 -35 -15 -35 -2 0 5 8 11 18 13 21
5 26 2 17 -11z m485 9 c0 -5 -18 -10 -40 -10 -34 0 -40 -3 -40 -21 0 -11 -5
-19 -12 -17 -19 7 -20 24 -3 42 18 18 95 23 95 6z m-360 -25 c0 -8 -9 -15 -20
-15 -11 0 -20 -6 -20 -14 0 -8 -14 -16 -37 -19 -45 -5 -54 -1 -46 18 3 10 19
15 44 15 28 0 39 4 39 15 0 8 9 15 20 15 11 0 20 -7 20 -15z m536 8 c-15 -4
-16 -7 -5 -14 11 -7 11 -9 -3 -9 -18 0 -23 11 -11 23 3 4 13 6 22 6 12 -1 11
-3 -3 -6z m-321 -13 c3 -5 1 -10 -4 -10 -6 0 -11 5 -11 10 0 6 2 10 4 10 3 0
8 -4 11 -10z m200 0 c19 -8 19 -9 -2 -9 -12 -1 -25 4 -28 9 -7 12 2 12 30 0z
m-43 -22 c9 -27 -25 -48 -79 -48 -28 0 -55 5 -58 10 -11 18 -35 11 -35 -10 0
-19 -6 -20 -82 -18 -46 1 -64 3 -40 5 54 5 58 30 5 36 -21 2 -3 2 40 -1 57 -3
77 -1 77 8 0 9 12 11 39 7 23 -3 49 1 63 8 30 17 65 18 70 3z m160 -50 c-6
-13 -11 -17 -11 -11 -1 8 -11 11 -31 7 -23 -5 -30 -3 -30 10 0 9 -6 17 -12 18
-7 0 7 4 32 7 54 8 67 0 52 -31z m-112 13 c0 -4 -11 -6 -25 -3 -14 2 -25 6
-25 8 0 2 11 4 25 4 14 0 25 -4 25 -9z m160 -22 c0 -11 -4 -17 -10 -14 -5 3
-10 13 -10 21 0 8 5 14 10 14 6 0 10 -9 10 -21z m-620 1 c0 -6 -24 -10 -52 -9
-42 1 -48 3 -28 9 36 12 80 12 80 0z m-2975 -20 c-3 -5 -15 -10 -26 -10 -10 0
-19 5 -19 10 0 6 12 10 26 10 14 0 23 -4 19 -10z m2685 -30 c0 -22 -4 -40 -10
-40 -5 0 -10 18 -10 40 0 22 5 40 10 40 6 0 10 -18 10 -40z m790 36 c0 -3 -4
-8 -10 -11 -5 -3 -10 -1 -10 4 0 6 5 11 10 11 6 0 10 -2 10 -4z m-491 -44
c-22 -9 -5 -21 34 -25 l42 -4 -47 -1 c-47 -2 -48 -1 -48 28 0 26 2 29 14 18 8
-7 10 -14 5 -16z m111 -8 c0 -11 -6 -14 -16 -10 -9 3 -18 6 -20 6 -2 0 -4 9
-4 20 0 18 3 19 20 10 11 -6 20 -18 20 -26z m374 -27 c6 -5 3 -6 -8 -3 -11 4
-23 1 -27 -6 -4 -7 -11 -9 -15 -5 -4 4 1 16 12 28 13 15 20 17 23 7 2 -7 9
-17 15 -21z m-174 13 c0 -5 -4 -10 -10 -10 -5 0 -10 5 -10 10 0 6 5 10 10 10
6 0 10 -4 10 -10z m-480 -30 c0 -13 -7 -20 -20 -20 -13 0 -20 7 -20 20 0 13 7
20 20 20 13 0 20 -7 20 -20z m100 -20 c0 -22 -4 -40 -10 -40 -5 0 -10 -7 -10
-16 0 -10 -10 -4 -30 18 -16 18 -30 36 -30 40 0 5 14 8 30 8 20 0 30 5 30 15
0 8 5 15 10 15 6 0 10 -18 10 -40z m40 0 c0 -22 -4 -40 -10 -40 -5 0 -10 18
-10 40 0 22 5 40 10 40 6 0 10 -18 10 -40z m400 20 c13 -9 13 -12 -2 -23 -15
-12 -15 -14 0 -24 15 -10 13 -12 -10 -12 -25 -1 -27 -4 -21 -31 5 -26 3 -30
-16 -30 -13 0 -29 6 -37 14 -16 17 -19 46 -4 46 6 0 9 3 9 8 -5 31 3 51 24 55
37 7 42 7 57 -3z m137 -52 c-3 -8 -6 -5 -6 6 -1 11 2 17 5 13 3 -3 4 -12 1
-19z m-3487 -40 c0 -26 -2 -28 -15 -14 -8 8 -15 21 -15 29 0 7 7 14 15 14 10
0 15 -10 15 -29z m2993 11 c-5 -19 -3 -21 25 -17 21 3 32 0 32 -8 0 -17 -27
-26 -34 -11 -5 9 -7 9 -12 0 -3 -7 -12 -9 -20 -6 -19 7 -19 63 0 63 10 0 12
-7 9 -21z m107 0 c0 -18 -2 -19 -15 -5 -8 8 -15 17 -15 20 0 3 7 6 15 6 9 0
15 -9 15 -21z m310 -9 c0 -16 -4 -30 -10 -30 -11 0 -14 43 -3 53 11 12 13 8
13 -23z m-200 -5 c0 -14 -4 -25 -10 -25 -5 0 -10 11 -10 25 0 14 5 25 10 25 6
0 10 -11 10 -25z m-346 -30 c8 -8 26 -15 40 -15 14 0 26 -4 26 -10 0 -5 -9
-10 -20 -10 -16 0 -20 -7 -20 -30 0 -23 4 -30 20 -30 12 0 20 7 20 16 0 18 37
54 54 53 6 0 6 -3 -1 -6 -7 -2 -13 -13 -13 -24 0 -10 -5 -19 -12 -19 -6 0 -9
-3 -6 -6 8 -7 35 -12 71 -13 20 -1 27 -6 27 -21 0 -18 -7 -20 -80 -20 -73 0
-80 2 -80 20 0 13 -7 20 -20 20 -16 0 -20 7 -20 36 0 27 -5 37 -20 41 -11 3
-20 10 -20 15 0 5 5 6 10 3 6 -3 10 -1 10 4 0 16 16 13 34 -4z m449 -76 c7 -1
22 0 35 1 12 1 22 -4 22 -10 0 -7 -14 -10 -37 -8 -37 4 -38 5 -39 43 -1 33 -1
34 3 8 2 -18 10 -33 16 -34z m-3323 37 c0 -3 -4 -8 -10 -11 -5 -3 -10 -1 -10
4 0 6 5 11 10 11 6 0 10 -2 10 -4z m260 -6 c0 -5 -18 -10 -40 -10 -22 0 -40 5
-40 10 0 6 18 10 40 10 22 0 40 -4 40 -10z m2863 -70 c-3 -11 -14 -20 -24 -20
-12 0 -19 7 -19 20 0 14 7 20 24 20 19 0 23 -4 19 -20z m97 -20 c0 -11 -4 -20
-10 -20 -5 0 -10 -7 -10 -15 0 -8 -4 -15 -8 -15 -9 0 -14 48 -6 61 10 17 34 9
34 -11z m171 -27 c-9 -16 -10 -14 -11 12 0 21 3 26 11 18 8 -8 8 -16 0 -30z
m49 0 c-1 -36 -2 -37 -15 -19 -19 26 -19 56 0 56 11 0 15 -11 15 -37z m-190
-18 c0 -1 -9 -5 -20 -8 -12 -3 -20 0 -20 8 0 8 8 11 20 8 11 -3 20 -7 20 -8z
m-1788 -25 c3 -16 1 -35 -4 -42 -4 -8 -8 4 -8 30 0 49 6 55 12 12z m182 15
c-10 -8 -28 -15 -38 -15 -20 0 -20 0 0 15 10 8 28 15 38 15 20 0 20 0 0 -15z
m104 3 c-2 -6 -11 -12 -20 -14 -11 -1 -15 3 -11 12 6 17 36 19 31 2z m-48 -17
c0 -10 -26 -9 -36 2 -4 4 2 7 14 7 12 0 22 -4 22 -9z m1560 -26 c0 -7 -7 -16
-16 -19 -8 -3 -12 -2 -9 4 3 6 1 10 -4 10 -6 0 -11 -4 -11 -10 0 -5 -10 -10
-22 -9 l-23 0 22 9 c12 5 24 18 28 30 5 17 10 19 21 9 8 -6 14 -17 14 -24z
m-1381 13 c0 -7 -4 -22 -9 -33 -7 -17 -9 -15 -9 13 -1 17 4 32 9 32 6 0 10 -6
9 -12z m1521 2 c0 -5 -4 -10 -10 -10 -5 0 -10 5 -10 10 0 6 5 10 10 10 6 0 10
-4 10 -10z m-342 -17 c-3 -15 -16 -18 -81 -21 -69 -3 -77 -5 -77 -22 0 -17 -7
-20 -40 -20 -33 0 -40 3 -40 20 0 17 -7 20 -40 20 -22 0 -40 5 -40 10 0 6 18
10 40 10 22 0 40 -4 40 -10 0 -19 38 -10 43 10 5 18 14 20 102 20 86 0 96 -2
93 -17z m365 -22 c-5 -3 -12 -14 -16 -23 -9 -26 -29 -22 -25 5 3 23 40 50 47
34 2 -5 -1 -12 -6 -16z m-733 9 c0 -5 -4 -10 -10 -10 -5 0 -10 5 -10 10 0 6 5
10 10 10 6 0 10 -4 10 -10z m-1130 -24 c0 -8 -4 -18 -10 -21 -5 -3 -10 3 -10
14 0 12 5 21 10 21 6 0 10 -6 10 -14z m1527 -18 c-3 -7 -5 -2 -5 12 0 14 2 19
5 13 2 -7 2 -19 0 -25z m238 22 c3 -5 -1 -10 -9 -10 -9 0 -16 5 -16 10 0 6 4
10 9 10 6 0 13 -4 16 -10z m-2982 -61 c3 -12 3 -18 0 -15 -4 3 -11 2 -17 -3
-14 -12 -51 13 -41 28 12 20 52 13 58 -10z m1532 12 c3 -5 1 -12 -5 -16 -5 -3
-10 1 -10 9 0 18 6 21 15 7z m1478 -5 c4 -10 -4 -15 -24 -18 -32 -5 -38 6 -11
21 23 14 29 13 35 -3z m-3213 -6 c0 -5 -4 -10 -10 -10 -5 0 -10 5 -10 10 0 6
5 10 10 10 6 0 10 -4 10 -10z m105 0 c3 -5 -3 -10 -15 -10 -12 0 -18 5 -15 10
3 6 10 10 15 10 5 0 12 -4 15 -10z m1338 -60 c0 -16 4 -30 9 -30 4 0 8 9 8 19
0 11 5 23 10 26 6 4 10 -5 10 -19 0 -14 -4 -26 -10 -26 -5 0 -10 -11 -10 -24
0 -14 -4 -28 -10 -31 -6 -4 -10 7 -10 24 0 17 -4 31 -9 31 -12 0 -22 45 -15
65 10 24 27 2 27 -35z m1544 44 c-3 -3 -12 -4 -19 -1 -8 3 -5 6 6 6 11 1 17
-2 13 -5z m88 -5 c-18 -5 -33 -5 -39 1 -7 7 4 10 30 9 39 -1 39 -1 9 -10z m63
-22 c-14 -6 -18 -11 -10 -14 6 -3 12 -10 12 -15 0 -6 -3 -8 -6 -5 -4 3 -15 2
-26 -4 -26 -14 -31 -7 -19 24 7 18 15 25 26 21 10 -4 15 0 15 11 0 15 2 15 16
4 14 -12 13 -14 -8 -22z m-2931 -29 c-3 -8 -6 -5 -6 6 -1 11 2 17 5 13 3 -3 4
-12 1 -19z m2768 12 c3 -5 1 -10 -4 -10 -6 0 -11 5 -11 10 0 6 2 10 4 10 3 0
8 -4 11 -10z m-2786 -62 c0 -18 -4 -55 -7 -83 l-7 -50 -10 83 c-10 76 -9 82 7
82 14 0 18 -8 17 -32z m2553 20 c-9 -9 -15 -9 -24 0 -9 9 -7 12 12 12 19 0 21
-3 12 -12z m138 3 c0 -5 -13 -9 -30 -9 -16 1 -30 5 -30 10 0 4 14 8 30 8 17 0
30 -4 30 -9z m50 -26 c0 -5 -5 -3 -10 5 -5 8 -10 20 -10 25 0 6 5 3 10 -5 5
-8 10 -19 10 -25z m97 9 c-3 -3 -12 -4 -19 -1 -8 3 -5 6 6 6 11 1 17 -2 13 -5z
m-211 -51 c-10 -10 -19 5 -10 18 6 11 8 11 12 0 2 -7 1 -15 -2 -18z m139 18
c10 -17 -12 -21 -25 -6 -10 12 -10 15 3 15 9 0 18 -4 22 -9z m-2876 -27 c2 -2
-7 -4 -22 -4 -14 0 -29 5 -32 10 -6 10 42 4 54 -6z m2588 -34 c0 -40 -10 -53
-21 -25 -4 12 11 65 19 65 1 0 2 -18 2 -40z m53 -14 c-11 -11 -39 20 -40 43 0
8 9 4 24 -10 16 -15 21 -28 16 -33z m3538 -19 c3 -44 2 -47 -22 -47 -15 0 -26
7 -29 18 -3 9 -5 -3 -6 -28 -1 -43 -14 -70 -33 -70 -4 0 -8 32 -8 70 0 68 4
76 34 71 5 -1 15 8 23 19 22 32 38 19 41 -33z m-224 25 c9 -27 3 -173 -7 -179
-12 -7 -18 1 -27 43 -5 22 -5 45 1 55 6 11 5 28 -1 45 -6 15 -9 33 -6 41 8 19
34 16 40 -5z m-62 -64 c-9 -9 -12 -7 -12 12 0 19 3 21 12 12 9 -9 9 -15 0 -24z
m-5788 1 c-3 -5 -10 -7 -15 -3 -5 3 -7 10 -3 15 3 5 10 7 15 3 5 -3 7 -10 3
-15z m2556 6 c0 -8 -7 -15 -15 -15 -8 0 -15 7 -15 15 0 8 7 15 15 15 8 0 15
-7 15 -15z m130 -5 c0 -5 -7 -10 -15 -10 -8 0 -15 5 -15 10 0 6 7 10 15 10 8
0 15 -4 15 -10z m90 -22 c0 -10 -34 -10 -43 -1 -4 3 1 12 11 19 16 12 31 3 32
-18z m60 13 c0 -27 -26 -46 -34 -25 -6 17 9 44 25 44 5 0 9 -8 9 -19z m-333
-23 c-3 -8 -6 -5 -6 6 -1 11 2 17 5 13 3 -3 4 -12 1 -19z m3596 -40 c-8 -69
-13 -78 -38 -78 -34 0 -39 15 -8 29 23 10 25 16 19 50 -6 41 0 56 19 41 6 -5
10 -24 8 -42z m-3543 18 c0 -7 -7 -19 -15 -26 -11 -10 -18 -9 -30 3 -23 24
-23 25 38 36 4 0 7 -5 7 -13z m228 -4 c7 7 12 8 12 2 0 -6 -11 -16 -24 -22
-21 -9 -24 -8 -29 14 -4 23 -3 23 12 9 13 -11 20 -12 29 -3z m2978 3 c9 -21
-5 -67 -17 -60 -5 4 -7 15 -4 25 3 10 1 21 -5 25 -12 7 -4 25 11 25 5 0 12 -7
15 -15z m-3399 -57 c-2 -13 -4 -3 -4 22 0 25 2 35 4 23 2 -13 2 -33 0 -45z
m3331 45 c-2 -5 -17 -35 -33 -68 -24 -51 -29 -56 -33 -36 -2 15 2 28 12 33 9
5 16 17 16 28 0 30 11 50 27 50 8 0 13 -3 11 -7z m-5688 -15 c0 -7 -4 -19 -9
-26 -7 -11 -10 -10 -15 3 -10 26 -7 35 9 35 8 0 15 -6 15 -12z m2567 -40 c-3
-8 -6 -5 -6 6 -1 11 2 17 5 13 3 -3 4 -12 1 -19z m97 -3 c11 -8 15 -15 9 -15
-19 0 -43 12 -43 21 0 13 12 11 34 -6z m-14 -28 c0 -4 5 -5 10 -2 6 3 10 2 10
-3 0 -6 -11 -9 -24 -8 -17 1 -26 8 -29 23 -3 18 -1 20 15 10 10 -7 18 -15 18
-20z m-600 -117 c0 -118 -3 -142 -15 -147 -9 -3 -17 -4 -19 -2 -1 2 -1 68 2
147 3 112 7 142 18 142 11 0 14 -27 14 -140z m37 -42 c-2 -35 -3 -7 -3 62 0
69 1 97 3 63 2 -35 2 -91 0 -125z m503 146 c0 -10 -28 -34 -41 -34 -8 0 -5 8
7 19 19 20 34 26 34 15z m-2660 -20 c0 -8 -5 -12 -10 -9 -6 4 -8 11 -5 16 9
14 15 11 15 -7z m2220 -4 c0 -5 -2 -10 -4 -10 -3 0 -8 5 -11 10 -3 6 -1 10 4
10 6 0 11 -4 11 -10z m3617 -25 c10 -27 -6 -30 -29 -7 l-22 22 22 0 c12 0 25
-7 29 -15z m-3542 -3 c15 -9 45 -10 51 0 3 4 14 8 25 8 17 0 18 -3 7 -20 -9
-14 -10 -25 -3 -37 17 -30 7 -63 -20 -63 -12 0 -26 7 -29 16 -8 20 2 36 16 28
6 -4 8 -3 5 3 -8 13 -36 10 -74 -9 l-31 -16 -15 37 c-15 34 -16 35 -23 13 -5
-18 -9 -20 -15 -10 -5 7 -9 23 -9 35 0 21 5 23 53 22 28 -1 56 -4 62 -7z m266
-15 c-10 -9 -11 -8 -5 6 3 10 9 15 12 12 3 -3 0 -11 -7 -18z m3123 -31 c-1
-17 -3 -39 -3 -49 -1 -10 -5 -15 -11 -12 -11 7 -14 74 -4 100 10 25 22 -1 18
-39z m-5684 19 c0 -9 -9 -15 -21 -15 -18 0 -19 2 -9 15 7 8 16 15 21 15 5 0 9
-7 9 -15z m2670 5 c0 -5 -7 -10 -15 -10 -8 0 -15 5 -15 10 0 6 7 10 15 10 8 0
15 -4 15 -10z m3280 -6 c0 -8 -4 -12 -10 -9 -5 3 -10 10 -10 16 0 5 5 9 10 9
6 0 10 -7 10 -16z m-6086 -2 c2 -4 -4 -13 -14 -20 -14 -8 -21 -8 -26 -1 -4 6
0 15 7 20 18 11 26 11 33 1z m2736 -28 c0 -15 -23 -44 -34 -44 -8 0 -3 32 7
48 11 17 27 15 27 -4z m60 6 c0 -5 -4 -10 -10 -10 -5 0 -10 5 -10 10 0 6 5 10
10 10 6 0 10 -4 10 -10z m-115 -20 c18 -7 18 -9 4 -15 -10 -3 -24 -5 -32 -3
-16 3 -57 -37 -57 -56 0 -6 -5 -3 -11 7 -12 20 -4 37 17 37 8 0 14 9 14 20 0
22 27 26 65 10z m306 -53 c-8 -8 -11 -7 -11 4 0 20 13 34 18 19 3 -7 -1 -17
-7 -23z m-487 -3 c11 -4 14 -13 10 -31 -5 -17 -1 -28 12 -38 18 -14 18 -14 -3
-15 -40 0 -70 18 -75 45 -5 25 -2 29 39 44 1 1 8 -2 17 -5z m43 -26 c-3 -8 -6
-5 -6 6 -1 11 2 17 5 13 3 -3 4 -12 1 -19z m127 13 c3 -5 -1 -12 -10 -15 -20
-8 -29 -1 -19 13 8 13 22 14 29 2z m-294 -31 c0 -11 7 -36 15 -56 13 -31 13
-36 0 -41 -8 -3 -15 -11 -15 -19 0 -16 -37 -19 -42 -4 -2 6 -28 13 -58 16 -78
8 -85 11 -70 29 7 8 23 15 36 15 13 0 24 5 24 10 0 6 9 10 20 10 11 0 23 7 26
15 9 24 24 17 24 -10 0 -14 5 -25 10 -25 6 0 10 18 10 40 0 22 5 40 10 40 6 0
10 -9 10 -20z m30 0 c0 -11 -4 -20 -10 -20 -5 0 -10 9 -10 20 0 11 5 20 10 20
6 0 10 -9 10 -20z m553 7 c7 -19 -17 -47 -39 -46 -16 0 -15 2 5 10 17 7 22 15
18 29 -6 22 8 28 16 7z m-63 -7 c0 -5 -5 -10 -11 -10 -5 0 -7 5 -4 10 3 6 8
10 11 10 2 0 4 -4 4 -10z m-460 -40 c0 -11 -4 -20 -10 -20 -5 0 -10 9 -10 20
0 11 5 20 10 20 6 0 10 -9 10 -20z m140 -15 c0 -8 -7 -15 -15 -15 -16 0 -20
12 -8 23 11 12 23 8 23 -8z m-66 -68 c-12 -31 -54 -32 -54 0 0 10 6 14 20 10
11 -3 23 -1 26 5 9 14 15 3 8 -15z m-106 -16 c10 -6 5 -10 -17 -14 -22 -5 -31
-12 -31 -27 0 -28 -24 -25 -44 5 -22 34 -21 36 19 33 19 -1 37 1 41 5 9 9 16
9 32 -2z m-129 -20 c13 -24 -9 -45 -39 -36 -19 6 -27 34 -13 48 13 14 42 7 52
-12z m173 -13 c-7 -7 -12 -8 -12 -2 0 6 3 14 7 17 3 4 9 5 12 2 2 -3 -1 -11
-7 -17z m-42 -38 c0 -9 -14 -14 -32 -11 -5 0 -8 -6 -8 -14 0 -8 -5 -15 -11
-15 -6 0 -9 8 -7 18 2 9 11 16 21 16 9 -1 17 2 17 7 0 5 5 9 10 9 6 0 10 -4
10 -10z m-190 -9 c0 -6 -10 -21 -23 -35 -16 -17 -27 -22 -38 -15 -7 5 -40 9
-71 9 -51 0 -58 -2 -58 -20 0 -28 -34 -26 -52 3 -19 30 -12 57 15 56 17 -1 18
-2 5 -6 -20 -5 -25 -43 -6 -43 6 0 22 10 36 23 18 17 40 23 95 28 40 3 78 6
85 7 6 1 12 -2 12 -7z m-276 -16 c7 -19 -3 -47 -15 -39 -12 7 -12 54 0 54 5 0
11 -7 15 -15z m319 8 c-7 -2 -19 -2 -25 0 -7 3 -2 5 12 5 14 0 19 -2 13 -5z
m67 -18 c0 -16 6 -25 16 -25 8 0 12 -4 9 -10 -8 -13 -46 -13 -65 0 -13 9 -12
12 5 26 11 8 19 20 18 25 -2 5 2 9 7 9 6 0 10 -11 10 -25z m355 -5 c3 -5 -1
-10 -10 -10 -9 0 -13 5 -10 10 3 6 8 10 10 10 2 0 7 -4 10 -10z m-478 -56 c-3
-3 -12 -4 -19 -1 -8 3 -5 6 6 6 11 1 17 -2 13 -5z m28 -13 c3 -5 1 -12 -5 -16
-5 -3 -10 1 -10 9 0 18 6 21 15 7z m345 -6 c0 -8 -4 -15 -10 -15 -5 0 -10 7
-10 15 0 8 5 15 10 15 6 0 10 -7 10 -15z m-72 -7 c-3 -7 -13 -15 -23 -16 -15
-4 -16 -2 -4 12 17 19 32 21 27 4z m50 -43 c-3 -3 -13 -2 -22 1 -14 5 -15 9
-4 15 13 8 36 -6 26 -16z m-98 -5 c-20 -13 -33 -13 -25 0 3 6 14 10 23 10 15
0 15 -2 2 -10z m-690 -29 c0 -12 -20 -25 -27 -18 -7 7 6 27 18 27 5 0 9 -4 9
-9z m214 3 c22 -9 10 -23 -14 -17 -11 3 -17 9 -14 14 6 11 8 11 28 3z m571
-13 c3 -5 1 -12 -5 -16 -5 -3 -10 1 -10 9 0 18 6 21 15 7z m-75 -15 c0 -3 -4
-8 -10 -11 -5 -3 -10 -1 -10 4 0 6 5 11 10 11 6 0 10 -2 10 -4z m-108 -38 c-7
-7 -12 -8 -12 -2 0 6 3 14 7 17 3 4 9 5 12 2 2 -3 -1 -11 -7 -17z m237 -8 c-6
-16 -15 -30 -20 -30 -5 0 -9 14 -9 30 0 23 5 30 19 30 18 0 19 -3 10 -30z
m-809 -20 c0 -22 4 -40 9 -40 5 0 11 -8 15 -17 3 -10 9 -24 12 -30 3 -7 1 -13
-5 -13 -6 0 -11 5 -11 10 0 6 -9 19 -20 30 -21 21 -29 100 -10 100 6 0 10 -18
10 -40z m750 12 c0 -4 -18 -6 -40 -4 -22 2 -40 6 -40 8 0 2 18 4 40 4 22 0 40
-3 40 -8z m-648 -36 c7 -36 -5 -50 -36 -42 -34 8 -33 26 2 26 19 0 23 3 13 9
-7 5 -10 14 -7 20 12 18 23 13 28 -13z m678 -31 c0 -5 -5 -3 -10 5 -5 8 -10
20 -10 25 0 6 5 3 10 -5 5 -8 10 -19 10 -25z m-33 -17 c-3 -8 -6 -5 -6 6 -1
11 2 17 5 13 3 -3 4 -12 1 -19z m-557 3 c0 -5 -8 -17 -17 -27 -23 -23 -30 -82
-18 -146 6 -28 3 -41 -8 -53 -14 -14 -17 -14 -26 2 -8 15 -10 11 -11 -19 0
-25 4 -37 12 -35 7 1 13 -8 14 -21 1 -16 -3 -21 -12 -18 -8 3 -14 0 -14 -7 -1
-7 -10 -1 -20 12 -24 28 -28 101 -5 101 18 0 39 36 25 45 -5 3 -10 1 -10 -4 0
-6 -18 -11 -40 -11 -33 0 -40 3 -40 20 0 17 7 20 43 21 23 1 45 1 50 0 10 -1
9 21 -3 39 -8 12 -10 11 -10 -7 0 -20 -5 -23 -40 -23 -33 0 -40 3 -40 20 0 17
-7 20 -40 20 l-40 0 0 40 c0 28 4 40 15 40 20 0 65 -22 65 -32 0 -4 18 -8 39
-8 31 0 46 7 68 30 27 29 63 40 63 21z m14 -69 c-4 -12 -10 -22 -15 -22 -11 0
-12 44 -2 54 12 11 23 -9 17 -32z m501 28 c3 -6 -5 -10 -19 -10 -13 0 -33 -3
-43 -6 -16 -5 -16 -4 1 10 22 18 52 21 61 6z m65 0 c0 -5 -12 -10 -26 -10 -14
0 -23 4 -19 10 3 6 15 10 26 10 10 0 19 -4 19 -10z m-760 -122 c0 -18 3 -44 7
-56 5 -21 3 -23 -18 -20 -13 1 -24 9 -23 16 1 6 2 30 3 52 1 28 5 40 16 40 10
0 15 -10 15 -32z m24 -148 c-5 -5 -28 -12 -51 -16 -37 -6 -43 -4 -43 11 0 14
6 16 41 10 39 -7 41 -6 34 16 -7 22 -7 22 10 5 10 -10 14 -21 9 -26z m343 -47
c-3 -10 -5 -4 -5 12 0 17 2 24 5 18 2 -7 2 -21 0 -30z m4418 -80 c3 -21 10
-54 15 -74 6 -20 10 -49 10 -65 0 -31 -82 -205 -105 -224 -8 -7 -15 -21 -15
-32 0 -15 -4 -18 -17 -13 -10 4 -37 14 -60 22 -42 15 -112 89 -114 122 -3 46
5 90 23 124 16 33 23 38 41 32 12 -4 38 -9 57 -12 19 -3 41 -10 48 -16 7 -5
15 -7 19 -4 3 4 14 2 23 -3 22 -12 30 5 30 60 0 22 6 43 15 50 10 8 12 16 6
19 -12 8 -3 51 10 51 4 0 11 -17 14 -37z m-6695 -160 c-11 -17 -11 -17 -6 0 3
10 7 26 7 35 1 15 2 15 6 0 2 -10 -1 -25 -7 -35z m2280 -59 c0 -21 -6 -37 -14
-40 -8 -3 -13 -11 -10 -18 2 -6 -2 -20 -10 -31 -17 -24 -31 -14 -42 29 -6 26
-5 29 15 23 14 -3 21 -1 21 10 0 8 5 11 10 8 6 -4 10 8 10 30 0 22 4 34 10 30
6 -3 10 -22 10 -41z m26 -12 c-12 -11 -17 7 -9 34 l8 29 3 -28 c2 -16 1 -31
-2 -35z m6619 -12 c0 -7 -6 -15 -12 -17 -8 -3 -13 4 -13 17 0 13 5 20 13 18 6
-3 12 -11 12 -18z m-382 -59 c18 2 38 0 45 -5 13 -8 16 -46 6 -82 -6 -23 -69
-59 -96 -55 -10 1 -18 -3 -18 -10 0 -10 -3 -10 -11 -2 -14 14 -4 47 11 38 6
-3 7 0 4 9 -4 12 -11 13 -24 6 -34 -18 -41 14 -10 50 11 13 20 34 20 47 0 21
2 22 21 13 11 -6 35 -10 52 -9z m-8463 -71 c0 -5 -4 -10 -10 -10 -5 0 -10 5
-10 10 0 6 5 10 10 10 6 0 10 -4 10 -10z m8456 -105 c-16 -17 -66 -21 -66 -5
0 5 6 7 14 4 8 -3 23 -1 33 5 26 15 37 13 19 -4z m-1589 -97 c-3 -8 -6 -5 -6
6 -1 11 2 17 5 13 3 -3 4 -12 1 -19z m-48 -59 c-21 -13 -32 2 -15 20 9 10 17
24 17 32 1 8 4 1 6 -15 3 -17 -1 -32 -8 -37z m-1032 -41 c-3 -7 -5 -2 -5 12 0
14 2 19 5 13 2 -7 2 -19 0 -25z m603 2 c0 -11 -4 -20 -10 -20 -5 0 -12 -11
-16 -24 -7 -29 -49 -71 -58 -58 -3 5 3 17 14 27 11 10 20 29 20 43 0 22 23 51
43 52 4 0 7 -9 7 -20z m426 4 c-3 -9 -6 -24 -6 -35 0 -12 -9 -21 -27 -25 l-26
-7 20 -17 21 -17 -24 -26 c-13 -14 -24 -29 -24 -32 0 -3 -16 -22 -35 -41 -20
-19 -33 -40 -29 -45 8 -14 -76 -91 -124 -113 -23 -10 -40 -22 -37 -26 2 -3 -2
-19 -10 -34 -15 -29 -11 -51 11 -60 8 -3 14 -10 14 -16 0 -6 16 -27 36 -46 30
-28 45 -34 80 -34 37 0 44 3 52 28 l10 27 1 -26 c1 -14 6 -30 11 -35 14 -14 2
-44 -19 -45 -12 0 -10 -3 5 -9 13 -5 22 -17 22 -32 0 -13 1 -29 3 -37 2 -9 -5
-16 -16 -18 -48 -9 -51 -14 -26 -34 32 -26 23 -31 -39 -23 -43 6 -50 9 -37 18
13 10 12 13 -11 24 -87 38 -177 66 -247 76 -50 7 -89 19 -102 30 -11 10 -33
29 -47 42 -19 17 -39 24 -65 24 -33 0 -40 4 -45 25 -9 33 -3 41 35 49 46 9
196 85 203 102 3 9 1 25 -5 36 -10 18 -8 24 12 39 16 12 28 15 41 8 28 -15 38
-10 38 20 0 26 16 53 37 63 5 1 20 19 35 40 21 27 46 43 99 64 48 19 84 41
107 66 29 31 39 36 66 32 26 -4 28 -3 13 6 -21 14 -16 25 13 27 16 1 20 -2 16
-13z m-407 -48 c9 -10 8 -15 -4 -20 -10 -4 -15 1 -15 14 0 24 4 25 19 6z
m-648 -118 c-9 -42 -9 -41 -9 22 -1 48 2 59 8 43 5 -13 5 -41 1 -65z m-5593
-145 c2 -58 -1 -84 -8 -77 -17 17 -14 164 3 164 2 0 4 -39 5 -87z m8537 17 c3
-5 1 -10 -4 -10 -6 0 -11 5 -11 10 0 6 2 10 4 10 3 0 8 -4 11 -10z m-2438 -16
c-3 -3 -12 -4 -19 -1 -8 3 -5 6 6 6 11 1 17 -2 13 -5z m2271 -5 c-2 -6 -8 -10
-13 -10 -5 0 -11 4 -13 10 -2 6 4 11 13 11 9 0 15 -5 13 -11z m8 -64 c14 -13
13 -15 -5 -15 -12 0 -21 6 -21 15 0 8 3 15 6 15 3 0 12 -7 20 -15z m169 -5
c-3 -5 -10 -10 -16 -10 -5 0 -9 5 -9 10 0 6 7 10 16 10 8 0 12 -4 9 -10z
m-1525 -19 c0 -5 -9 -19 -20 -32 -19 -23 -19 -23 -20 -3 0 20 17 44 32 44 4 0
8 -4 8 -9z m1390 -42 c0 -11 -6 -27 -14 -34 -12 -12 -15 -12 -20 0 -3 8 -1 15
4 15 6 0 10 9 10 20 0 11 5 20 10 20 6 0 10 -9 10 -21z m-1538 -31 c6 -17 -24
-68 -39 -68 -21 0 -22 16 -3 48 21 33 36 40 42 20z m-6825 -74 c-3 -3 -12 -4
-19 -1 -8 3 -5 6 6 6 11 1 17 -2 13 -5z m119 -63 c-4 -6 -23 -11 -42 -11 -23
0 -33 4 -28 11 3 6 17 9 30 6 17 -3 24 0 24 11 0 12 3 13 11 5 6 -6 8 -16 5
-22z m6334 -175 c0 -3 -4 -8 -10 -11 -5 -3 -10 -1 -10 4 0 6 5 11 10 11 6 0
10 -2 10 -4z m-6870 -49 c0 -28 -46 -55 -64 -37 -7 7 -3 10 12 10 17 0 22 6
22 25 0 16 6 25 15 25 9 0 15 -9 15 -23z m-360 -182 c0 -8 -4 -15 -10 -15 -5
0 -7 7 -4 15 4 8 8 15 10 15 2 0 4 -7 4 -15z m-776 -51 c21 -8 21 -34 0 -34
-18 0 -46 25 -37 34 8 8 17 8 37 0z m-367 -10 c-3 -3 -12 -4 -19 -1 -8 3 -5 6
6 6 11 1 17 -2 13 -5z m278 -33 c-6 -5 -25 10 -25 20 0 5 6 4 14 -3 8 -7 12
-15 11 -17z m5 -57 c0 -8 -4 -14 -10 -14 -5 0 -10 9 -10 21 0 11 5 17 10 14 6
-3 10 -13 10 -21z m430 1 c0 -8 -4 -15 -10 -15 -5 0 -10 7 -10 15 0 8 5 15 10
15 6 0 10 -7 10 -15z m1415 -116 c1 -13 5 -32 10 -41 5 -13 3 -18 -9 -18 -12
0 -16 10 -17 43 0 23 -3 36 -6 30 -2 -7 -9 -13 -15 -13 -6 0 -5 6 2 15 18 21
33 14 35 -16z m-25 -24 c0 -8 -7 -15 -15 -15 -26 0 -18 20 13 29 1 1 2 -6 2
-14z m203 -15 c-9 -9 -63 -22 -63 -16 0 22 14 32 41 28 17 -2 27 -8 22 -12z
m-210 -57 c-7 -2 -19 -2 -25 0 -7 3 -2 5 12 5 14 0 19 -2 13 -5z m-76 -19 c-3
-3 -12 -4 -19 -1 -8 3 -5 6 6 6 11 1 17 -2 13 -5z m-150 -20 c-3 -3 -12 -4
-19 -1 -8 3 -5 6 6 6 11 1 17 -2 13 -5z m23 -34 c0 -13 -11 -13 -30 0 -12 8
-11 10 8 10 12 0 22 -4 22 -10z m570 -115 c0 -8 -7 -15 -15 -15 -9 0 -12 6 -9
15 4 8 10 15 15 15 5 0 9 -7 9 -15z m-47 -20 c-6 -17 -29 -20 -38 -5 -10 16
-21 12 -32 -12 -10 -21 -12 -21 -18 -5 -10 24 -1 31 40 30 19 -1 35 3 35 9 0
5 4 7 10 3 5 -3 7 -12 3 -20z m-109 -23 c9 -15 -10 -33 -28 -26 -13 5 -14 9
-5 20 13 16 25 18 33 6z m-104 -83 c0 -21 -20 -27 -21 -6 0 6 -2 20 -4 30 -3
15 -1 16 11 6 8 -6 14 -20 14 -30z m70 0 c0 -5 -9 -9 -20 -9 -11 0 -20 6 -20
14 0 9 7 12 20 9 11 -3 20 -9 20 -14z"/>
<path d="M5810 8760 c0 -5 5 -10 10 -10 6 0 10 5 10 10 0 6 -4 10 -10 10 -5 0
-10 -4 -10 -10z"/>
<path d="M6320 7450 c0 -5 5 -10 10 -10 6 0 10 5 10 10 0 6 -4 10 -10 10 -5 0
-10 -4 -10 -10z"/>
<path d="M5048 5993 c7 -3 16 -2 19 1 4 3 -2 6 -13 5 -11 0 -14 -3 -6 -6z"/>
<path d="M2625 7800 c3 -5 8 -10 11 -10 2 0 4 5 4 10 0 6 -5 10 -11 10 -5 0
-7 -4 -4 -10z"/>
<path d="M2742 7719 c2 -6 8 -10 13 -10 5 0 11 4 13 10 2 6 -4 11 -13 11 -9 0
-15 -5 -13 -11z"/>
<path d="M2230 7490 c-9 -6 -10 -10 -3 -10 6 0 15 5 18 10 8 12 4 12 -15 0z"/>
<path d="M1603 6890 c0 -25 2 -35 4 -22 2 12 2 32 0 45 -2 12 -4 2 -4 -23z"/>
<path d="M3585 6840 c3 -5 8 -10 11 -10 2 0 4 5 4 10 0 6 -5 10 -11 10 -5 0
-7 -4 -4 -10z"/>
<path d="M4313 6795 c0 -14 3 -25 8 -25 5 0 9 9 9 19 0 11 -4 22 -9 25 -5 3
-8 -6 -8 -19z"/>
<path d="M4458 6793 c7 -3 16 -2 19 1 4 3 -2 6 -13 5 -11 0 -14 -3 -6 -6z"/>
<path d="M1517 6604 c6 -15 23 -19 23 -5 0 5 -7 11 -14 14 -10 4 -13 1 -9 -9z"/>
<path d="M3505 6610 c-3 -5 -1 -10 4 -10 6 0 11 5 11 10 0 6 -2 10 -4 10 -3 0
-8 -4 -11 -10z"/>
<path d="M4236 6595 c4 -8 7 -15 9 -15 2 0 5 7 9 15 3 9 0 15 -9 15 -9 0 -12
-6 -9 -15z"/>
<path d="M4480 6570 c0 -22 5 -40 10 -40 6 0 10 18 10 40 0 22 -4 40 -10 40
-5 0 -10 -18 -10 -40z"/>
<path d="M4180 6585 c0 -8 7 -15 15 -15 8 0 15 7 15 15 0 8 -7 15 -15 15 -8 0
-15 -7 -15 -15z"/>
<path d="M3530 6570 c-20 -12 -10 -19 14 -10 11 3 15 9 10 13 -6 3 -16 2 -24
-3z"/>
<path d="M3835 6570 c3 -5 11 -10 16 -10 6 0 7 5 4 10 -3 6 -11 10 -16 10 -6
0 -7 -4 -4 -10z"/>
<path d="M1615 6561 c-3 -5 -1 -12 5 -16 5 -3 10 1 10 9 0 18 -6 21 -15 7z"/>
<path d="M4220 6555 c0 -8 -5 -15 -12 -15 -6 0 -9 -2 -6 -5 3 -3 13 -3 22 1
17 7 22 34 6 34 -5 0 -10 -7 -10 -15z"/>
<path d="M4271 6548 c0 -10 -8 -18 -16 -18 -8 0 -15 -4 -15 -9 0 -10 65 -3 89
9 10 5 10 9 2 14 -6 4 -11 2 -11 -3 0 -18 -38 -12 -43 7 -4 16 -5 16 -6 0z"/>
<path d="M3770 6530 c0 -5 6 -10 14 -10 8 0 18 5 21 10 3 6 -3 10 -14 10 -12
0 -21 -4 -21 -10z"/>
<path d="M3407 6514 c-4 -4 -7 -14 -7 -23 0 -11 3 -12 11 -4 6 6 10 16 7 23
-2 6 -7 8 -11 4z"/>
<path d="M4130 6505 l-25 -14 28 -1 c17 0 27 5 27 15 0 18 1 18 -30 0z"/>
<path d="M4360 6492 c0 -5 7 -16 16 -23 14 -12 16 -11 13 5 -4 20 -29 35 -29
18z"/>
<path d="M4070 6460 c0 -12 8 -12 35 0 18 8 17 9 -7 9 -16 1 -28 -3 -28 -9z"/>
<path d="M4203 6405 c0 -22 2 -30 4 -17 2 12 2 30 0 40 -3 9 -5 -1 -4 -23z"/>
<path d="M1610 6355 c12 -15 30 -12 30 6 0 5 -10 9 -21 9 -18 0 -19 -2 -9 -15z"/>
<path d="M4240 6333 c0 -24 5 -43 10 -43 13 0 13 50 0 70 -7 11 -10 4 -10 -27z"/>
<path d="M3260 6324 c0 -8 5 -12 10 -9 6 4 8 11 5 16 -9 14 -15 11 -15 -7z"/>
<path d="M4321 6317 c-1 -25 18 -59 30 -52 14 9 11 25 -5 25 -8 0 -17 10 -19
23 -3 16 -5 17 -6 4z"/>
<path d="M3940 6290 c0 -19 11 -26 23 -14 8 8 -3 34 -14 34 -5 0 -9 -9 -9 -20z"/>
<path d="M3302 6255 c0 -16 2 -22 5 -12 2 9 2 23 0 30 -3 6 -5 -1 -5 -18z"/>
<path d="M4236 6254 c-4 -9 -4 -19 -1 -22 3 -3 5 0 5 6 0 6 12 10 26 9 15 -1
29 4 31 11 7 19 -54 15 -61 -4z"/>
<path d="M4161 6223 c1 -35 1 -36 9 -11 4 14 11 31 15 37 3 6 -1 11 -9 11 -12
0 -16 -10 -15 -37z"/>
<path d="M3441 6174 c0 -11 3 -14 6 -6 3 7 2 16 -1 19 -3 4 -6 -2 -5 -13z"/>
<path d="M4015 6160 c-3 -5 -1 -10 4 -10 6 0 11 5 11 10 0 6 -2 10 -4 10 -3 0
-8 -4 -11 -10z"/>
<path d="M1818 6133 c7 -3 16 -2 19 1 4 3 -2 6 -13 5 -11 0 -14 -3 -6 -6z"/>
<path d="M4230 6091 c0 -22 -5 -42 -12 -44 -8 -3 -6 -6 5 -6 14 -1 17 8 17 44
0 25 -2 45 -5 45 -3 0 -5 -18 -5 -39z"/>
<path d="M4180 6090 c0 -11 7 -20 15 -20 8 0 15 6 15 14 0 8 -7 16 -15 20 -10
4 -15 -1 -15 -14z"/>
<path d="M3862 6040 c0 -19 2 -27 5 -17 2 9 2 25 0 35 -3 9 -5 1 -5 -18z"/>
<path d="M4280 6030 c0 -5 5 -10 10 -10 6 0 10 5 10 10 0 6 -4 10 -10 10 -5 0
-10 -4 -10 -10z"/>
<path d="M3810 6009 c0 -5 5 -7 10 -4 6 3 10 8 10 11 0 2 -4 4 -10 4 -5 0 -10
-5 -10 -11z"/>
<path d="M4240 5990 c0 -5 5 -10 11 -10 5 0 7 5 4 10 -3 6 -8 10 -11 10 -2 0
-4 -4 -4 -10z"/>
<path d="M4273 5988 c2 -7 10 -13 17 -13 7 0 15 6 18 13 2 7 -5 12 -18 12 -13
0 -20 -5 -17 -12z"/>
<path d="M1840 5980 c0 -5 7 -10 16 -10 8 0 12 5 9 10 -3 6 -10 10 -16 10 -5
0 -9 -4 -9 -10z"/>
<path d="M3933 5963 c9 -2 25 -2 35 0 9 3 1 5 -18 5 -19 0 -27 -2 -17 -5z"/>
<path d="M2045 5860 c-4 -6 -3 -16 3 -22 6 -6 12 -6 17 2 4 6 3 16 -3 22 -6 6
-12 6 -17 -2z"/>
<path d="M2085 5840 c-3 -5 -1 -10 4 -10 6 0 11 5 11 10 0 6 -2 10 -4 10 -3 0
-8 -4 -11 -10z"/>
<path d="M3558 5843 c7 -3 16 -2 19 1 4 3 -2 6 -13 5 -11 0 -14 -3 -6 -6z"/>
<path d="M3807 5833 c-4 -3 -7 -11 -7 -17 0 -6 5 -5 12 2 6 6 9 14 7 17 -3 3
-9 2 -12 -2z"/>
<path d="M3264 5818 c-3 -4 13 -8 35 -8 23 0 41 2 41 4 0 8 -71 12 -76 4z"/>
<path d="M3796 5782 c-3 -6 -1 -14 5 -17 15 -10 25 3 12 16 -7 7 -13 7 -17 1z"/>
<path d="M4458 5773 c7 -3 16 -2 19 1 4 3 -2 6 -13 5 -11 0 -14 -3 -6 -6z"/>
<path d="M1948 5723 c7 -3 16 -2 19 1 4 3 -2 6 -13 5 -11 0 -14 -3 -6 -6z"/>
<path d="M3107 5722 c6 -4 13 -23 16 -42 4 -33 4 -33 5 8 2 34 -1 42 -15 42
-12 0 -14 -3 -6 -8z"/>
<path d="M3795 5677 c-4 -24 -2 -58 3 -77 9 -31 10 -26 11 43 1 42 -1 77 -3
77 -3 0 -8 -19 -11 -43z"/>
<path d="M3060 5600 c0 -16 5 -30 10 -30 6 0 10 14 10 30 0 17 -4 30 -10 30
-5 0 -10 -13 -10 -30z"/>
<path d="M2160 5610 c0 -5 10 -10 23 -10 18 0 19 2 7 10 -19 13 -30 13 -30 0z"/>
<path d="M3030 5610 c0 -7 -8 -19 -17 -26 -17 -12 -17 -13 -1 -14 17 0 35 36
24 47 -3 4 -6 0 -6 -7z"/>
<path d="M2255 5600 c-3 -5 -1 -10 4 -10 6 0 11 5 11 10 0 6 -2 10 -4 10 -3 0
-8 -4 -11 -10z"/>
<path d="M2140 5580 c0 -5 5 -10 11 -10 8 0 8 -4 0 -13 -8 -10 -7 -17 1 -25 7
-7 8 -15 1 -24 -5 -7 -9 -32 -8 -55 0 -24 -3 -43 -9 -43 -5 0 -2 -8 7 -18 10
-10 17 -35 17 -55 0 -30 4 -37 20 -37 11 0 20 7 20 15 0 8 5 15 10 15 6 0 10
7 10 15 0 13 -4 14 -20 5 -17 -9 -20 -8 -20 8 0 10 -5 23 -11 29 -20 20 -2 44
28 41 25 -3 28 0 28 30 1 34 -21 45 -32 16 -9 -24 -23 4 -23 48 0 20 -3 43 -6
52 -7 18 -24 22 -24 6z"/>
<path d="M3158 5563 c6 -2 18 -2 25 0 6 3 1 5 -13 5 -14 0 -19 -2 -12 -5z"/>
<path d="M3092 5510 c0 -14 2 -19 5 -12 2 6 2 18 0 25 -3 6 -5 1 -5 -13z"/>
<path d="M3163 5523 c9 -2 23 -2 30 0 6 3 -1 5 -18 5 -16 0 -22 -2 -12 -5z"/>
<path d="M4218 5476 c-32 -11 -37 -26 -9 -26 17 0 49 27 40 33 -2 2 -16 -1
-31 -7z"/>
<path d="M2095 5460 c-4 -6 -3 -16 3 -22 6 -6 12 -6 17 2 4 6 3 16 -3 22 -6 6
-12 6 -17 -2z"/>
<path d="M2240 5449 c0 -12 5 -19 12 -17 18 6 20 25 3 31 -10 5 -15 0 -15 -14z"/>
<path d="M2720 5460 c0 -5 -8 -10 -17 -10 -10 0 -13 -3 -7 -8 15 -14 104 -2
104 14 0 10 -12 14 -40 14 -22 0 -40 -4 -40 -10z"/>
<path d="M2824 5449 c-10 -17 13 -36 27 -22 12 12 4 33 -11 33 -5 0 -12 -5
-16 -11z"/>
<path d="M3806 5435 c-3 -8 -1 -17 3 -20 5 -3 11 2 15 10 3 8 1 17 -3 20 -5 3
-11 -2 -15 -10z"/>
<path d="M2608 5433 c6 -2 18 -2 25 0 6 3 1 5 -13 5 -14 0 -19 -2 -12 -5z"/>
<path d="M4309 5421 c-11 -12 -15 -34 -13 -69 1 -29 -1 -54 -5 -56 -3 -3 -25
1 -48 7 -48 12 -78 -2 -68 -34 4 -13 0 -19 -17 -21 -21 -4 -21 -5 -5 -13 10
-4 28 -3 40 2 34 16 92 33 109 33 9 0 18 7 22 15 10 26 36 17 37 -12 0 -25 1
-26 9 -8 5 11 9 30 9 43 1 17 -5 22 -24 22 -21 0 -25 5 -25 32 l0 31 19 -21
c25 -29 31 -28 31 8 0 17 5 30 13 30 17 1 -11 16 -44 23 -17 5 -30 1 -40 -12z"/>
<path d="M4416 5386 c3 -9 11 -16 16 -16 13 0 5 23 -10 28 -7 2 -10 -2 -6 -12z"/>
<path d="M2880 5352 c0 -14 -8 -22 -22 -25 -22 -3 -22 -4 -4 -12 13 -6 21 -5
24 3 2 7 10 12 18 12 18 0 18 14 -1 30 -13 10 -15 9 -15 -8z"/>
<path d="M4142 5350 c-10 -17 -10 -20 3 -20 8 0 15 9 15 20 0 11 -1 20 -3 20
-1 0 -8 -9 -15 -20z"/>
<path d="M2241 5350 c0 -8 4 -24 8 -34 6 -17 8 -17 14 -4 3 9 -1 24 -8 35 -11
14 -14 15 -14 3z"/>
<path d="M3138 5323 c12 -2 32 -2 45 0 12 2 2 4 -23 4 -25 0 -35 -2 -22 -4z"/>
<path d="M3405 5320 c3 -5 8 -10 11 -10 2 0 4 5 4 10 0 6 -5 10 -11 10 -5 0
-7 -4 -4 -10z"/>
<path d="M3865 5318 c-4 -10 -4 -26 0 -35 8 -17 8 -17 12 0 3 9 3 25 0 35 -4
16 -4 16 -12 0z"/>
<path d="M2242 5270 c0 -14 2 -19 5 -12 2 6 2 18 0 25 -3 6 -5 1 -5 -13z"/>
<path d="M2276 5283 c-13 -14 -5 -33 14 -33 11 0 20 6 20 14 0 15 -24 28 -34
19z"/>
<path d="M2338 5283 c12 -2 32 -2 45 0 12 2 2 4 -23 4 -25 0 -35 -2 -22 -4z"/>
<path d="M2340 5253 c14 -3 29 -9 35 -14 14 -14 25 -11 25 6 0 11 -11 15 -42
14 -28 -1 -34 -3 -18 -6z"/>
<path d="M4288 5238 c9 -9 15 -9 24 0 9 9 7 12 -12 12 -19 0 -21 -3 -12 -12z"/>
<path d="M2321 5194 c0 -11 3 -14 6 -6 3 7 2 16 -1 19 -3 4 -6 -2 -5 -13z"/>
<path d="M3341 5177 c-8 -10 -7 -14 4 -14 8 0 15 6 15 14 0 7 -2 13 -4 13 -2
0 -9 -6 -15 -13z"/>
<path d="M4000 5159 c0 -5 5 -7 10 -4 6 3 10 8 10 11 0 2 -4 4 -10 4 -5 0 -10
-5 -10 -11z"/>
<path d="M2336 5144 c-7 -18 0 -34 15 -34 12 0 12 37 0 44 -5 3 -12 -1 -15
-10z"/>
<path d="M2390 5129 c0 -11 4 -18 10 -14 5 3 7 12 3 20 -7 21 -13 19 -13 -6z"/>
<path d="M3397 5110 c-4 -15 0 -20 14 -20 12 0 16 5 13 15 -4 8 -2 15 4 15 6
0 13 -6 15 -12 3 -8 6 -6 6 5 1 25 -45 23 -52 -3z"/>
<path d="M2280 5063 c0 -42 16 -61 23 -27 3 15 3 34 0 41 -9 23 -23 14 -23
-14z"/>
<path d="M2400 5079 c0 -5 5 -7 10 -4 6 3 10 8 10 11 0 2 -4 4 -10 4 -5 0 -10
-5 -10 -11z"/>
<path d="M3120 5049 c0 -12 5 -19 12 -17 18 6 20 25 3 31 -10 5 -15 0 -15 -14z"/>
<path d="M3750 5032 c-13 -14 -12 -15 2 -9 9 3 19 1 21 -6 2 -7 7 -9 11 -6 3
3 0 13 -7 22 -11 15 -13 14 -27 -1z"/>
<path d="M3825 4980 c-4 -6 -3 -16 3 -22 6 -6 12 -6 17 2 4 6 3 16 -3 22 -6 6
-12 6 -17 -2z"/>
<path d="M1991 4944 c0 -11 3 -14 6 -6 3 7 2 16 -1 19 -3 4 -6 -2 -5 -13z"/>
<path d="M2240 4940 c0 -5 18 -10 40 -10 22 0 40 -5 40 -11 0 -5 5 -7 10 -4 6
4 5 12 -4 21 -16 16 -86 19 -86 4z"/>
<path d="M2632 4915 c0 -16 2 -22 5 -12 2 9 2 23 0 30 -3 6 -5 -1 -5 -18z"/>
<path d="M1683 4906 c17 -24 32 -24 32 2 0 11 -8 17 -23 18 -21 1 -22 0 -9
-20z"/>
<path d="M2118 4923 c28 -3 42 -9 42 -19 0 -13 -25 -17 -103 -17 -11 0 -17 -6
-15 -16 2 -9 13 -16 24 -15 16 0 20 -5 16 -18 -3 -13 0 -17 10 -13 18 7 42
-20 35 -38 -3 -7 4 -19 14 -25 12 -8 19 -8 19 -2 0 14 27 13 32 -2 3 -9 6 -9
12 0 5 8 -3 14 -23 18 -30 6 -36 17 -33 56 1 9 -6 19 -16 21 -12 3 -11 5 6 6
13 1 22 -5 22 -14 0 -9 6 -12 17 -8 11 4 12 8 5 11 -7 2 -12 21 -12 43 l0 39
-47 -2 -48 -1 43 -4z"/>
<path d="M3850 4910 c-20 -12 -6 -23 30 -23 17 0 33 3 37 7 9 9 -16 26 -37 26
-8 0 -22 -4 -30 -10z"/>
<path d="M3737 4903 c-2 -4 -2 -36 1 -70 l4 -63 37 1 36 1 -27 11 c-32 13 -37
42 -8 50 18 5 19 7 6 39 -14 32 -39 48 -49 31z"/>
<path d="M3040 4880 c0 -5 7 -10 16 -10 8 0 12 5 9 10 -3 6 -10 10 -16 10 -5
0 -9 -4 -9 -10z"/>
<path d="M3635 4880 c3 -5 10 -10 16 -10 5 0 9 5 9 10 0 6 -7 10 -16 10 -8 0
-12 -4 -9 -10z"/>
<path d="M3680 4879 c0 -5 5 -7 10 -4 6 3 10 8 10 11 0 2 -4 4 -10 4 -5 0 -10
-5 -10 -11z"/>
<path d="M2194 4863 c10 -11 36 -12 36 -2 0 5 -10 9 -22 9 -12 0 -18 -3 -14
-7z"/>
<path d="M2800 4860 c0 -5 5 -10 10 -10 6 0 10 5 10 10 0 6 -4 10 -10 10 -5 0
-10 -4 -10 -10z"/>
<path d="M3642 4814 c-2 -30 3 -46 18 -59 18 -16 20 -16 20 -2 0 10 -6 17 -14
17 -10 0 -16 14 -19 43 l-4 42 -1 -41z"/>
<path d="M4000 4826 c0 -9 5 -16 10 -16 6 0 10 4 10 9 0 6 -4 13 -10 16 -5 3
-10 -1 -10 -9z"/>
<path d="M4000 4780 c0 -5 5 -10 11 -10 5 0 7 5 4 10 -3 6 -8 10 -11 10 -2 0
-4 -4 -4 -10z"/>
<path d="M1600 4740 c0 -5 5 -10 10 -10 6 0 10 5 10 10 0 6 -4 10 -10 10 -5 0
-10 -4 -10 -10z"/>
<path d="M2058 4743 c7 -3 16 -2 19 1 4 3 -2 6 -13 5 -11 0 -14 -3 -6 -6z"/>
<path d="M2705 4742 c-10 -10 18 -32 41 -32 13 0 24 -4 24 -10 0 -5 7 -10 15
-10 8 0 15 5 15 10 0 6 -6 10 -14 10 -8 0 -16 6 -19 14 -5 14 -52 27 -62 18z"/>
<path d="M3565 4717 c-4 -10 -5 -21 -1 -24 10 -10 18 4 13 24 -4 17 -4 17 -12
0z"/>
<path d="M3513 4671 c-7 -10 -9 -22 -6 -25 12 -12 21 -6 25 19 6 30 -3 32 -19
6z"/>
<path d="M1631 4573 c0 -23 -5 -43 -11 -45 -6 -2 -6 -9 0 -18 17 -27 28 3 20
55 l-7 50 -2 -42z"/>
<path d="M3540 4580 c0 -5 5 -10 10 -10 6 0 10 5 10 10 0 6 -4 10 -10 10 -5 0
-10 -4 -10 -10z"/>
<path d="M3535 4540 c-3 -5 1 -10 10 -10 9 0 13 5 10 10 -3 6 -8 10 -10 10 -2
0 -7 -4 -10 -10z"/>
<path d="M1606 4393 c-11 -11 -6 -23 9 -23 8 0 15 4 15 9 0 13 -16 22 -24 14z"/>
<path d="M3585 3960 c3 -5 8 -10 11 -10 2 0 4 5 4 10 0 6 -5 10 -11 10 -5 0
-7 -4 -4 -10z"/>
<path d="M10707 3795 c-4 -8 -2 -17 3 -20 6 -4 10 3 10 14 0 25 -6 27 -13 6z"/>
<path d="M3672 3760 c0 -19 2 -27 5 -17 2 9 2 25 0 35 -3 9 -5 1 -5 -18z"/>
<path d="M10733 3083 c9 -2 23 -2 30 0 6 3 -1 5 -18 5 -16 0 -22 -2 -12 -5z"/>
<path d="M10733 2913 c9 -2 23 -2 30 0 6 3 -1 5 -18 5 -16 0 -22 -2 -12 -5z"/>
<path d="M3466 2891 c-4 -7 -5 -15 -2 -18 9 -9 19 4 14 18 -4 11 -6 11 -12 0z"/>
<path d="M10648 2879 c-4 -23 -2 -24 59 -27 57 -2 63 -1 63 18 0 14 -7 20 -22
20 -13 0 -39 3 -59 6 -32 6 -37 4 -41 -17z"/>
<path d="M2120 2760 c0 -5 5 -10 10 -10 6 0 10 5 10 10 0 6 -4 10 -10 10 -5 0
-10 -4 -10 -10z"/>
<path d="M2160 2760 c0 -5 9 -10 20 -10 11 0 20 5 20 10 0 6 -9 10 -20 10 -11
0 -20 -4 -20 -10z"/>
<path d="M2323 2665 c0 -22 2 -30 4 -17 2 12 2 30 0 40 -3 9 -5 -1 -4 -23z"/>
<path d="M2280 2661 c0 -11 5 -23 10 -26 6 -4 10 5 10 19 0 14 -4 26 -10 26
-5 0 -10 -9 -10 -19z"/>
<path d="M2298 2603 c7 -3 16 -2 19 1 4 3 -2 6 -13 5 -11 0 -14 -3 -6 -6z"/>
<path d="M1850 2320 c-12 -8 -11 -10 8 -10 12 0 22 5 22 10 0 13 -11 13 -30 0z"/>
<path d="M240 2146 c0 -16 6 -26 14 -26 9 0 12 7 9 20 -8 31 -23 34 -23 6z"/>
<path d="M2401 2144 c0 -11 3 -14 6 -6 3 7 2 16 -1 19 -3 4 -6 -2 -5 -13z"/>
<path d="M65 2060 c-3 -5 -1 -10 4 -10 6 0 11 5 11 10 0 6 -2 10 -4 10 -3 0
-8 -4 -11 -10z"/>
<path d="M2480 2050 c0 -5 10 -10 23 -10 18 0 19 2 7 10 -19 13 -30 13 -30 0z"/>
<path d="M20 2036 c-28 -13 -25 -34 6 -42 38 -10 78 7 82 33 3 19 -1 21 -32
20 -19 -1 -44 -6 -56 -11z"/>
<path d="M130 2041 c0 -5 7 -11 15 -15 8 -3 15 -1 15 4 0 5 8 11 18 13 9 3 2
5 -15 6 -18 0 -33 -3 -33 -8z"/>
<path d="M1455 1948 c-4 -10 -4 -26 0 -35 6 -17 7 -17 16 0 7 11 7 23 0 35 -9
16 -10 16 -16 0z"/>
</g>
</svg>
